<svg xmlns="http://www.w3.org/2000/svg" xmlns:xlink="http://www.w3.org/1999/xlink" xmlns:inkscape="http://www.inkscape.org/namespaces/inkscape" version="1.1" width="336" height="12" viewBox="0 0 336 12">
<defs>
<clipPath id="clip_1">
<path transform="matrix(1,0,0,-1,-137,637)" d="M0 0H612V792H0Z"/>
</clipPath>
<path id="font_2_1" d="M.36898805 .42404176C.3619995 .42204286 .35499574 .41903688 .34999085 .41503907L.24099732 .56811526C.21798706 .6001282 .20298767 .61013796 .17799378 .61013796 .14698792 .61013796 .12298584 .5861206 .12298584 .5550995 .12298584 .5310974 .13398743 .51509097 .16499329 .4920807L.31999208 .38201905C.31698609 .37702943 .31399537 .36901856 .31298829 .36302186L.1269989 .3940277C.11399841 .3970337 .101989749 .39804078 .09599304 .39804078 .06399536 .39804078 .035995485 .37101747 .035995485 .34100343 .035995485 .31098939 .06399536 .28398133 .09599304 .28398133 .10398865 .28398133 .11399841 .2849884 .1269989 .2869873L.31399537 .31900025C.31599427 .31199647 .31900025 .30499269 .32199098 .2999878L.16899109 .19093323C.13699341 .16893006 .1269989 .15292359 .1269989 .12791443 .1269989 .09689331 .15098572 .07287598 .18199158 .07287598 .20599365 .07287598 .22200012 .08389282 .24499512 .11489868L.35398866 .26896668C.3600006 .26597596 .3659973 .26397706 .37399293 .26197816L.34298707 .07688904C.33999635 .06288147 .33898927 .051879884 .33898927 .0448761 .33898927 .0138549809 .3659973-.014144897 .3959961-.014144897 .42599488-.014144897 .45298768 .0138549809 .45298768 .04586792 .45298768 .053878786 .45199586 .06387329 .44999696 .07688904L.41799928 .26296998C.42399598 .26496888 .43099977 .26797486 .43699647 .27197267L.54599 .11891174C.56799319 .086883548 .58399966 .07688904 .60899356 .07688904 .6399994 .07688904 .6639862 .10089111 .6639862 .13090515 .6639862 .1559143 .6539917 .17193604 .621994 .19494629L.46699525 .3039856C.46998597 .30999757 .47299195 .31799317 .47399903 .32400514L.6599884 .29197694C.6729889 .28997804 .68499758 .2889862 .69099429 .2889862 .72299197 .2889862 .7509918 .31599427 .7509918 .3460083 .7509918 .37602235 .72299197 .4030304 .69099429 .4030304 .6839905 .4030304 .6729889 .40203858 .6599884 .40003968L.47299195 .36802674C.46998597 .37702943 .46798707 .38201905 .46499635 .38702394L.6179962 .4960785C.6489868 .5180969 .6599884 .5341034 .6599884 .55911257 .6599884 .5901184 .6359863 .61413577 .6049957 .61413577 .58099368 .61413577 .5649872 .604126 .5419922 .57211306L.43299867 .41804505C.4269867 .42105104 .42199708 .42304994 .41299439 .42504884L.44400025 .61013796C.44699098 .6241455 .44799806 .6351471 .44799806 .6411438 .44799806 .67315676 .42099 .7011719 .3909912 .7011719 .36099244 .7011719 .33399964 .67315676 .33399964 .6411438 .33399964 .6331482 .33499146 .62213137 .33699037 .61013796L.36898805 .42404176Z"/>
<path id="font_3_1" d="M.44198609 0V.023986817C.35099793 .026000977 .33399964 .041000368 .33399964 .11805725V.68847659H.31698609L.06498718 .5793915V.55337527C.07398987 .5563812 .08198547 .55937197 .084991458 .56137087 .11199951 .5713806 .13699341 .5783844 .1499939 .5783844 .1749878 .5783844 .18598938 .5563812 .18598938 .5093384V.124069217C.18598938 .042007448 .1659851 .024993897 .066986087 .023986817V0H.44198609Z"/>
<path id="font_4_1" d="M.20999146 .2568512C.20999146 .3028412 .17199707 .34184266 .125 .34184266 .07699585 .34184266 .040985109 .30184938 .040985109 .2568512 .040985109 .20983887 .07699585 .17285156 .125 .17285156 .17199707 .17285156 .20999146 .20884705 .20999146 .2568512Z"/>
<path id="font_5_1" d="M.18099976 .04324341C.18099976 .07424927 .15499878 .100250247 .125 .100250247 .09498596 .100250247 .069992069 .07525635 .069992069 .04324341 .069992069 .0052490236 .10398865-.0107421879 .125-.0107421879 .1459961-.0107421879 .18099976 .0062561037 .18099976 .04324341Z"/>
<path id="font_6_2" d="M.70599368 0V.018997193C.6609955 .021987915 .651001 .031982423 .6159973 .10592651L.36698915 .6738281H.34700013L.13899231 .18286133C.07499695 .036972047 .06298828 .021987915 .01499939 .018997193V0H.21299744V.018997193C.16499329 .018997193 .14498902 .031982423 .14498902 .059951784 .14498902 .07194519 .147995 .0859375 .15299988 .09892273L.19898987 .21583557H.46099855L.5019989 .119903568C.5139923 .091934207 .5209961 .06695557 .5209961 .051971437 .5209961 .04296875 .5149994 .031982423 .5069885 .02798462 .49499513 .020996094 .4869995 .018997193 .45098878 .018997193V0H.70599368M.44699098 .25683595H.21598816L.33099366 .53182986 .44699098 .25683595Z"/>
<path id="font_6_13" d="M.4850006 0V.01499939C.43598939 .019989014 .42399598 .03199768 .42399598 .08097839V.30996705C.42399598 .40394593 .37998963 .45996095 .30599977 .45996095 .2599945 .45996095 .22898865 .4429474 .16099549 .37895204V.45794679L.1539917 .45996095C.10499573 .44203187 .070999149 .43103028 .015991211 .41503907V.3980255C.021987915 .4010315 .03199768 .40203858 .042999269 .40203858 .070999149 .40203858 .07998657 .38703919 .07998657 .33802796V.08999634C.07998657 .032989503 .068984989 .018997193 .017990113 .01499939V0H.22999573V.01499939C.1789856 .018997193 .1639862 .0309906 .1639862 .06700134V.34802247C.21199036 .3929596 .23399353 .404953 .2669983 .404953 .31599427 .404953 .33999635 .3739624 .33999635 .30796815V.098983768C.33999635 .035995485 .32699586 .018997193 .2769928 .01499939V0H.4850006Z"/>
<path id="font_6_20" d="M.47499085 .43518067V.4501953H.33999635V.43518067C.37199403 .43518067 .3880005 .42619325 .3880005 .41018678 .3880005 .40618897 .3869934 .40019227 .38398744 .39318849L.2869873 .11720276 .17199707 .37019349C.1659851 .3841858 .1619873 .39718629 .1619873 .40818788 .1619873 .42619325 .1769867 .43318177 .21998596 .43518067V.4501953H.01399231V.43618775C.039993287 .43218995 .056991579 .42118836 .06498718 .40419007L.22999573 .05619812C.23699951 .03919983 .24099732 .02720642 .24099732 .019195557 .24099732 .004196167 .21798706-.058792116 .20098877-.08879089 .18699646-.11479187 .16499329-.13378906 .15098572-.13378906 .14498902-.13378906 .13598633-.13179016 .12599182-.12680054 .10699463-.11979675 .08999634-.11579895 .07299805-.11579895 .049987794-.11579895 .02999878-.13580323 .02999878-.15979004 .02999878-.1927948 .06199646-.21780396 .10398865-.21780396 .17098999-.21780396 .21899414-.1618042 .272995-.017807007L.4269867 .3901825C.43998719 .42219544 .45098878 .43218995 .47499085 .43518067Z"/>
<path id="font_6_18" d="M.2789917 .066223148 .2659912 .07722473C.24398804 .051223756 .22799683 .04222107 .20599365 .04222107 .16899109 .04222107 .1539917 .068222049 .1539917 .1322174V.41818238H.25498963V.4501953H.1539917V.5661926C.1539917 .57618716 .1519928 .5791931 .14698792 .5791931 .14099121 .56918337 .13398743 .56018069 .1269989 .55119326 .08999634 .4961853 .055999757 .45918275 .02999878 .44418336 .018997193 .43719483 .0129852299 .43118287 .0129852299 .42518617 .0129852299 .42218019 .01399231 .42018128 .016998291 .41818238H.069992069V.11721802C.069992069 .033233644 .099990848-.009765625 .1579895-.009765625 .20799256-.009765625 .24598694 .014221191 .2789917 .066223148Z"/>
<path id="font_6_9" d="M.4869995 0V.01499939C.43299867 .024993897 .4269867 .032989503 .4269867 .101989749V.30096437C.4269867 .40596009 .3849945 .45996095 .3039856 .45996095 .24499512 .45996095 .20298767 .43595887 .15699768 .3759613V.68003848L.1519928 .68304446C.117996219 .67103579 .09298706 .66304019 .036987306 .6470337L.009994507 .6390381V.6230469C.01399231 .6240387 .016998291 .6240387 .021987915 .6240387 .06498718 .6240387 .07299805 .61602786 .07299805 .5730133V.101989749C.07299805 .03199768 .066986087 .022994996 .008987427 .01499939V0H.22499085V.01499939C.16699219 .020996094 .15699768 .032989503 .15699768 .101989749V.34295655C.19898987 .38894654 .22898865 .40596009 .2679901 .40596009 .31799317 .40596009 .34298707 .36994935 .34298707 .29995729V.101989749C.34298707 .033996583 .33299256 .020996094 .2749939 .01499939V0H.4869995Z"/>
<path id="font_6_10" d="M.25299073 0V.01499939C.18699646 .019989014 .1789856 .02998352 .1789856 .101989749V.45695497L.1749878 .45996095 .019989014 .404953V.3899536L.027999878 .3909607C.039993287 .3929596 .052993776 .39396668 .06199646 .39396668 .085998538 .39396668 .09498596 .3779602 .09498596 .33396913V.101989749C.09498596 .02998352 .084991458 .018997193 .015991211 .01499939V0H.25299073M.18798828 .63204959C.18798828 .66004946 .1659851 .68304446 .13699341 .68304446 .10899353 .68304446 .085998538 .66004946 .085998538 .63204959 .085998538 .6030426 .10899353 .5810547 .13699341 .5810547 .1659851 .5810547 .18798828 .6030426 .18798828 .63204959Z"/>
<path id="font_6_8" d="M.46998597 .38775636V.4267578H.3929901C.37298585 .4267578 .35798646 .4298706 .33799745 .43695069L.31599427 .4449463C.2889862 .45495606 .2619934 .45996095 .23599243 .45996095 .14299011 .45996095 .068984989 .38775636 .068984989 .2970276 .068984989 .23422241 .09599304 .19633484 .1619873 .16340637L.11898804 .12338257C.085998538 .09436035 .07299805 .07435608 .07299805 .054336549 .07299805 .033340455 .084991458 .021347046 .12599182 .0013427734 .054992677-.050689699 .027999878-.08370972 .027999878-.1207428 .027999878-.17378235 .10598755-.21777344 .20098877-.21777344 .27598573-.21777344 .35398866-.19178772 .4059906-.14976502 .44400025-.1187439 .46099855-.0867157 .46099855-.048690797 .46099855 .01335144 .4139862 .055343629 .33999635 .05834961L.21099854 .06434631C.1579895 .066345218 .1329956 .0753479 .1329956 .09136963 .1329956 .1113739 .1659851 .14640808 .19299317 .15440369 .20199585 .15341187 .20899964 .15240479 .21199036 .15240479 .23098755 .15040589 .24398804 .14941406 .25 .14941406 .2869873 .14941406 .32699586 .16441345 .35798646 .19136048 .3909912 .2192688 .4059906 .25416566 .4059906 .30400086 .4059906 .33291627 .40098573 .35585023 .3869934 .38775636H.46998597M.43299867-.063705448C.43299867-.12174988 .35699464-.16078186 .24398804-.16078186 .1559906-.16078186 .09799194-.13175965 .09799194-.08772278 .09799194-.064697269 .10499573-.05168152 .14698792-.001663208 .17999268-.008651733 .2599945-.0146484379 .30899049-.0146484379 .3999939-.0146484379 .43299867-.027664185 .43299867-.063705448M.32899476 .26512147C.32899476 .20930481 .2999878 .17440796 .2539978 .17440796 .19400025 .17440796 .1519928 .23921204 .1519928 .33491517V.33790589C.1519928 .39674378 .17999268 .4319458 .22599793 .4319458 .25698854 .4319458 .2829895 .41474916 .29899598 .38476563 .31698609 .34986878 .32899476 .30400086 .32899476 .26512147Z"/>
<path id="font_6_12" d="M.7749939 0V.01499939L.7489929 .016998291C.71899417 .018997193 .70599368 .036987306 .70599368 .07598877V.28196717C.70599368 .39994813 .6669922 .45996095 .58999636 .45996095 .5319977 .45996095 .48098756 .43395997 .4269867 .3759613 .40899659 .43295289 .375 .45996095 .32099916 .45996095 .2769928 .45996095 .24899292 .44595338 .1659851 .38294984V.45794679L.15899658 .45996095C.10798645 .44102479 .07398987 .43003846 .018997193 .41503907V.3980255C.03199768 .4010315 .039993287 .40203858 .050994874 .40203858 .07699585 .40203858 .085998538 .3860321 .085998538 .33802796V.085006717C.085998538 .0309906 .07199097 .015991211 .015991211 .01499939V0H.23799134V.01499939C.18499756 .016998291 .16999817 .027999878 .16999817 .06700134V.34902955C.16999817 .34902955 .17799378 .36102296 .18499756 .36802674 .20999146 .3909607 .25299073 .40795899 .28799439 .40795899 .33198548 .40795899 .35398866 .37295533 .35398866 .30296327V.08598328C.35398866 .02998352 .34298707 .018997193 .28599549 .01499939V0H.5099945V.01499939C.45298768 .015991211 .43798829 .032989503 .43798829 .09498596V.34695436C.46798707 .3899536 .5009918 .40795899 .5469971 .40795899 .60398867 .40795899 .621994 .38095094 .621994 .29795838V.08699036C.621994 .02998352 .6139984 .021987915 .55599978 .01499939V0H.7749939Z"/>
<path id="font_6_15" d="M.46998597 .24707031C.46998597 .37097169 .3999939 .45996095 .30299378 .45996095 .24699402 .45996095 .20298767 .43495179 .15899658 .3809662V.45794679L.15299988 .45996095C.09899902 .43917848 .06399536 .42617799 .008987427 .4091797V.39317323C.017990113 .39416505 .024993897 .39416505 .033996583 .39416505 .067993167 .39416505 .07499695 .38417054 .07499695 .33717347V-.13079834C.07499695-.1828003 .06399536-.19380188 .004989624-.19979859V-.21679688H.24699402V-.19880677C.17199707-.19779969 .15899658-.1867981 .15899658-.123794559V.033218385C.19400025 .00022888184 .21798706-.009765625 .2599945-.009765625 .37799073-.009765625 .46998597 .10221863 .46998597 .24719239V.24707031M.38398744 .20820618C.38398744 .097213748 .33499146 .022232056 .2630005 .022232056 .21598816 .022232056 .15899658 .05822754 .15899658 .08821106V.33418275C.15899658 .36398316 .21499634 .39994813 .26098634 .39994813 .33499146 .39994813 .38398744 .32400514 .38398744 .2080841V.20820618Z"/>
<path id="font_6_11" d="M.25698854 0V.01499939C.19299317 .018997193 .18199158 .0289917 .18199158 .083999637V.68104556L.17799378 .68304446C.12599182 .66604617 .08799744 .6560364 .018997193 .6390381V.6230469H.024993897C.035995485 .6240387 .04798889 .6250458 .055999757 .6250458 .08799744 .6250458 .09799194 .6110382 .09799194 .56404116V.08699036C.09799194 .032989503 .083999637 .019989014 .020996094 .01499939V0H.25698854Z"/>
<path id="font_6_7" d="M.42399598 .15727234 .4079895 .16427613C.3600006 .08824158 .31698609 .05921936 .25299073 .05921936 .19799805 .05921936 .1559906 .085235599 .1269989 .13926697 .10699463 .17828369 .09899902 .21330261 .09700012 .27734376H.40499879C.39698792 .34222413 .3869934 .37112428 .3619995 .40301515 .33198548 .43894959 .28599549 .45996095 .23399353 .45996095 .10998535 .45996095 .024993897 .36016847 .024993897 .21430969 .024993897 .07623291 .09700012-.009765625 .21199036-.009765625 .30799867-.009765625 .38198854 .049224855 .42399598 .15727234M.30299378 .30934144H.09899902C.10998535 .38807679 .14399719 .4239502 .20498657 .4239502 .2659912 .4239502 .2899933 .39604188 .30299378 .30934144Z"/>
<path id="font_6_6" d="M.4909973 .04222107V.05821228C.47299195 .05722046 .47099305 .05722046 .46798707 .05722046 .43199159 .05722046 .42399598 .06820679 .42399598 .11418152V.68104556L.4189911 .68304446C.37098695 .66604617 .33599855 .6560364 .27198792 .6390381V.6230469C.27999879 .6240387 .28599549 .6240387 .2939911 .6240387 .33099366 .6240387 .33999635 .61402896 .33999635 .5730133V.41696168C.3019867 .44895936 .2749939 .45996095 .23498535 .45996095 .11999512 .45996095 .026992798 .34701539 .026992798 .20510865 .026992798 .07720947 .101989749-.009765625 .21199036-.009765625 .2679901-.009765625 .30599977 .010223389 .33999635 .05722046V-.0067749025L.34399415-.009765625 .4909973 .04222107M.33999635 .10218811C.33999635 .095184329 .33299256 .08319092 .32299806 .07220459 .30499269 .052215578 .27999879 .04222107 .25099183 .04222107 .16799927 .04222107 .11299133 .122177127 .11299133 .24508667 .11299133 .3580017 .1619873 .4319458 .23799134 .4319458 .29100038 .4319458 .33999635 .3849945 .33999635 .33203126V.10218811Z"/>
<path id="font_6_5" d="M.46798707 .24307251C.46798707 .36598207 .3919983 .45996095 .2919922 .45996095 .23098755 .45996095 .17298889 .4239502 .15299988 .37496949V.68104556L.147995 .68304446C.10598755 .66804507 .07899475 .6600342 .03199768 .6470337L.0029907227 .6390381V.6230469C.008987427 .6240387 .0129852299 .6240387 .019989014 .6240387 .05999756 .6240387 .068984989 .615036 .068984989 .5730133V.05419922C.068984989 .023223877 .1539917-.009765625 .23399353-.009765625 .3659973-.009765625 .46798707 .10017395 .46798707 .24307251M.37998963 .19709778C.37998963 .08618164 .33198548 .022232056 .25 .022232056 .19799805 .022232056 .15299988 .045211793 .15299988 .07019043V.32200624C.15299988 .36097718 .19999695 .3969574 .2519989 .3969574 .32998658 .3969574 .37998963 .3190155 .37998963 .19709778Z"/>
<path id="font_6_4" d="M.44198609 .040222169V.066207889C.4249878 .052230836 .41299439 .047225954 .397995 .047225954 .375 .047225954 .36799623 .06121826 .36799623 .10519409V.30004884C.36799623 .35101319 .36299134 .3789978 .34899903 .40197755 .32798768 .43995667 .2849884 .45996095 .22399903 .45996095 .17298889 .45996095 .125 .44595338 .09700012 .42295838 .07199097 .40197755 .055999757 .3730011 .055999757 .34802247 .055999757 .32502748 .07499695 .3050537 .09899902 .3050537 .12298584 .3050537 .14399719 .32502748 .14399719 .34701539 .14399719 .35101319 .14299011 .35601808 .14199829 .3630066 .13999939 .37199403 .13899231 .37998963 .13899231 .3869934 .13899231 .41397096 .17098999 .43595887 .21099854 .43595887 .2599945 .43595887 .2869873 .40698243 .2869873 .35301209V.29205323C.1329956 .23010254 .115997318 .22210694 .07299805 .18412781 .050994874 .1641388 .036987306 .13017273 .036987306 .09719849 .036987306 .034225465 .07998657-.009765625 .14199829-.009765625 .18598938-.009765625 .22698975 .011230469 .28799439 .06321716 .29299928 .010223389 .31098939-.009765625 .35198976-.009765625 .38598634-.009765625 .40699769 .0022277833 .44198609 .040222169M.2869873 .123168949C.2869873 .0921936 .28199769 .08320618 .26098634 .07020569 .23699951 .056228639 .20899964 .048233034 .18798828 .048233034 .15299988 .048233034 .125 .0821991 .125 .12516785V.12916565C.125 .18812561 .1659851 .22410584 .2869873 .2680664V.123168949Z"/>
<path id="font_6_16" d="M.33499146 .4069519C.33499146 .43995667 .31399537 .45996095 .27999879 .45996095 .23799134 .45996095 .20899964 .43695069 .1599884 .36595155V.45794679L.15499878 .45996095C.101989749 .43795777 .06599426 .42495729 .0069885256 .40596009V.3899536C.020996094 .3929596 .02999878 .39395143 .041992189 .39395143 .066986087 .39395143 .07598877 .3779602 .07598877 .33395387V.083984378C.07598877 .033996583 .068984989 .026992798 .004989624 .01499939V0H.24499512V.01499939C.1769867 .017990113 .1599884 .032989503 .1599884 .08998108V.31495667C.1599884 .34695436 .20298767 .3969574 .22999573 .3969574 .23599243 .3969574 .24499512 .3919525 .2559967 .381958 .27198792 .36795045 .2829895 .36195375 .29599 .36195375 .31999208 .36195375 .33499146 .37895204 .33499146 .4069519Z"/>
<path id="font_6_19" d="M.47898866 .036132814V.050125123H.47399903C.42799378 .050125123 .4169922 .06112671 .4169922 .10713196V.4501953H.25898744V.43318177C.32099916 .43019105 .33299256 .42018128 .33299256 .37017823V.13513184C.33299256 .10813904 .32798768 .09313965 .31599427 .08413696 .28799439 .06022644 .25698854 .048233034 .22599793 .048233034 .18699646 .048233034 .15499878 .082229617 .15499878 .1242218V.4501953H.008987427V.43618775C.056991579 .43318177 .070999149 .41818238 .070999149 .37219239V.120224C.070999149 .041229249 .11898804-.009765625 .19198609-.009765625 .22898865-.009765625 .2679901 .006225586 .29499818 .033233644L.33799745 .07621765V-.0067749025L.34199525-.008773804C.3919983 .011230469 .42799378 .022232056 .47898866 .036224367V.036132814Z"/>
<path id="font_6_14" d="M.46998597 .23408509C.46998597 .3650055 .37799073 .45996095 .25 .45996095 .11999512 .45996095 .0289917 .3639984 .0289917 .22608948 .0289917 .09118652 .12199402-.009765625 .24798584-.009765625 .37399293-.009765625 .46998597 .09617615 .46998597 .23408509M.37998963 .19911194C.37998963 .08618164 .33499146 .018234253 .2599945 .018234253 .22099304 .018234253 .18399048 .04220581 .16299439 .08218384 .1349945 .13415528 .11898804 .20410156 .11898804 .27505494 .11898804 .36999513 .1659851 .4319458 .23699951 .4319458 .32099916 .4319458 .37998963 .3360138 .37998963 .19911194Z"/>
<path id="font_6_17" d="M.34799195 .11816406C.34799195 .1681366 .32499696 .20111084 .2639923 .23709107L.1559906 .3010559C.12799073 .31704713 .11299133 .34202577 .11299133 .36901856 .11299133 .4099884 .14399719 .4369812 .18998719 .4369812 .24699402 .4369812 .2769928 .4039917 .2999878 .31404115H.31498719L.31098939 .4499817H.2999878L.2979889 .4479828C.2889862 .440979 .28799439 .43997193 .28399659 .43997193 .27799989 .43997193 .2679901 .44197084 .25698854 .4469757 .23599243 .4549713 .21299744 .45898438 .18899536 .45898438 .10699463 .45898438 .050994874 .40899659 .050994874 .33602906 .050994874 .28007508 .08299255 .24108887 .16799927 .19212342L.22599793 .15913391C.26098634 .1391449 .27799989 .11515808 .27799989 .08418274 .27799989 .04020691 .24598694 .01222229 .19499207 .01222229 .12599182 .01222229 .09098816 .050201417 .067993167 .15214539H.051986696V-.003768921H.06498718C.07199097 .006225586 .07598877 .008224487 .08799744 .008224487 .09899902 .008224487 .10998535 .006225586 .13398743 .00022888184 .1619873-.0057678224 .18699646-.009765625 .20799256-.009765625 .28399659-.009765625 .34799195 .048202516 .34799195 .11816406Z"/>
<path id="font_6_1" d="M.18099976 .04324341C.18099976 .07424927 .15499878 .100250247 .125 .100250247 .09498596 .100250247 .069992069 .07424927 .069992069 .04324341 .069992069 .014251709 .09498596-.0107421879 .12399292-.0107421879 .15499878-.0107421879 .18099976 .014251709 .18099976 .04324341Z"/>
<path id="font_6_3" d="M.5419922 .48109437C.5419922 .52308657 .5279999 .5610962 .5009918 .59010317 .46099855 .63409426 .37399293 .6621094 .27999879 .6621094H.015991211V.6430969C.08999634 .6351013 .099990848 .6251068 .099990848 .5531006V.120025638C.099990848 .035995485 .09199524 .026000977 .015991211 .018997193V0H.29599V.018997193C.21699524 .021987915 .20199585 .035995485 .20199585 .10902405V.29107667C.22799683 .28907777 .24499512 .28808595 .2709961 .28808595 .34899903 .28808595 .40299989 .29808045 .44599916 .32208253 .5059967 .3540802 .5419922 .41508485 .5419922 .48109437M.43299867 .4750824C.43299867 .37808229 .37399293 .32807923 .25898744 .32807923 .23899842 .32807923 .22499085 .32907105 .20199585 .3310852V.591095C.20199585 .618103 .20899964 .6251068 .23599243 .6251068 .37098695 .6251068 .43299867 .5780945 .43299867 .4750824Z"/>
</defs>
<g clip-path="url(#clip_1)">
<use data-text="&#x274b;" xlink:href="#font_2_1" transform="matrix(8.966759,0,0,-8.966759,.07899475,9.153992)"/>
<use data-text="1" xlink:href="#font_3_1" transform="matrix(11.9552,0,0,-11.9552,7.117996,9.153992)"/>
<use data-text="&#x00b7;" xlink:href="#font_4_1" transform="matrix(11.9552,0,0,-11.9552,13.214996,7.7369997)"/>
<use data-text="1" xlink:href="#font_3_1" transform="matrix(11.9552,0,0,-11.9552,16.32399,9.153992)"/>
<use data-text="." xlink:href="#font_5_1" transform="matrix(11.9552,0,0,-11.9552,22.492997,9.153992)"/>
<use data-text="A" xlink:href="#font_6_2" transform="matrix(11.9552,0,0,-11.9552,28.672989,9.153992)"/>
<use data-text="n" xlink:href="#font_6_13" transform="matrix(11.9552,0,0,-11.9552,37.30464,9.153992)"/>
<use data-text="y" xlink:href="#font_6_20" transform="matrix(11.9552,0,0,-11.9552,42.923585,9.153992)"/>
<use data-text="t" xlink:href="#font_6_18" transform="matrix(11.9552,0,0,-11.9552,48.901185,9.153992)"/>
<use data-text="h" xlink:href="#font_6_9" transform="matrix(11.9552,0,0,-11.9552,52.22473,9.153992)"/>
<use data-text="i" xlink:href="#font_6_10" transform="matrix(11.9552,0,0,-11.9552,58.20233,9.153992)"/>
<use data-text="n" xlink:href="#font_6_13" transform="matrix(11.9552,0,0,-11.9552,61.52588,9.153992)"/>
<use data-text="g" xlink:href="#font_6_8" transform="matrix(11.9552,0,0,-11.9552,67.50348,9.153992)"/>
<use data-text="i" xlink:href="#font_6_10" transform="matrix(11.9552,0,0,-11.9552,76.46988,9.153992)"/>
<use data-text="m" xlink:href="#font_6_12" transform="matrix(11.9552,0,0,-11.9552,79.79343,9.153992)"/>
<use data-text="p" xlink:href="#font_6_15" transform="matrix(11.9552,0,0,-11.9552,89.094577,9.153992)"/>
<use data-text="l" xlink:href="#font_6_11" transform="matrix(11.9552,0,0,-11.9552,95.072177,9.153992)"/>
<use data-text="i" xlink:href="#font_6_10" transform="matrix(11.9552,0,0,-11.9552,98.39572,9.153992)"/>
<use data-text="e" xlink:href="#font_6_7" transform="matrix(11.9552,0,0,-11.9552,101.71927,9.153992)"/>
<use data-text="d" xlink:href="#font_6_6" transform="matrix(11.9552,0,0,-11.9552,107.027378,9.153992)"/>
<use data-text="b" xlink:href="#font_6_5" transform="matrix(11.9552,0,0,-11.9552,115.993778,9.153992)"/>
<use data-text="y" xlink:href="#font_6_20" transform="matrix(11.9552,0,0,-11.9552,121.61273,9.153992)"/>
<use data-text="a" xlink:href="#font_6_4" transform="matrix(11.9552,0,0,-11.9552,130.57913,9.153992)"/>
<use data-text="t" xlink:href="#font_6_18" transform="matrix(11.9552,0,0,-11.9552,138.87604,9.153992)"/>
<use data-text="r" xlink:href="#font_6_16" transform="matrix(11.9552,0,0,-11.9552,142.19959,9.153992)"/>
<use data-text="u" xlink:href="#font_6_19" transform="matrix(11.9552,0,0,-11.9552,146.41977,9.153992)"/>
<use data-text="e" xlink:href="#font_6_7" transform="matrix(11.9552,0,0,-11.9552,152.39737,9.153992)"/>
<use data-text="e" xlink:href="#font_6_7" transform="matrix(11.9552,0,0,-11.9552,160.69428,9.153992)"/>
<use data-text="l" xlink:href="#font_6_11" transform="matrix(11.9552,0,0,-11.9552,166.00238,9.153992)"/>
<use data-text="e" xlink:href="#font_6_7" transform="matrix(11.9552,0,0,-11.9552,169.32593,9.153992)"/>
<use data-text="m" xlink:href="#font_6_12" transform="matrix(11.9552,0,0,-11.9552,174.63404,9.153992)"/>
<use data-text="e" xlink:href="#font_6_7" transform="matrix(11.9552,0,0,-11.9552,183.93518,9.153992)"/>
<use data-text="n" xlink:href="#font_6_13" transform="matrix(11.9552,0,0,-11.9552,189.24329,9.153992)"/>
<use data-text="t" xlink:href="#font_6_18" transform="matrix(11.9552,0,0,-11.9552,195.22089,9.153992)"/>
<use data-text="a" xlink:href="#font_6_4" transform="matrix(11.9552,0,0,-11.9552,198.54444,9.153992)"/>
<use data-text="r" xlink:href="#font_6_16" transform="matrix(11.9552,0,0,-11.9552,203.85254,9.153992)"/>
<use data-text="y" xlink:href="#font_6_20" transform="matrix(11.9552,0,0,-11.9552,208.07273,9.153992)"/>
<use data-text="p" xlink:href="#font_6_15" transform="matrix(11.9552,0,0,-11.9552,217.03913,9.153992)"/>
<use data-text="r" xlink:href="#font_6_16" transform="matrix(11.9552,0,0,-11.9552,223.01673,9.153992)"/>
<use data-text="o" xlink:href="#font_6_14" transform="matrix(11.9552,0,0,-11.9552,226.9978,9.153992)"/>
<use data-text="p" xlink:href="#font_6_15" transform="matrix(11.9552,0,0,-11.9552,232.9754,9.153992)"/>
<use data-text="o" xlink:href="#font_6_14" transform="matrix(11.9552,0,0,-11.9552,238.953,9.153992)"/>
<use data-text="s" xlink:href="#font_6_17" transform="matrix(11.9552,0,0,-11.9552,244.9306,9.153992)"/>
<use data-text="i" xlink:href="#font_6_10" transform="matrix(11.9552,0,0,-11.9552,249.58118,9.153992)"/>
<use data-text="t" xlink:href="#font_6_18" transform="matrix(11.9552,0,0,-11.9552,252.90473,9.153992)"/>
<use data-text="i" xlink:href="#font_6_10" transform="matrix(11.9552,0,0,-11.9552,256.22828,9.153992)"/>
<use data-text="o" xlink:href="#font_6_14" transform="matrix(11.9552,0,0,-11.9552,259.55183,9.153992)"/>
<use data-text="n" xlink:href="#font_6_13" transform="matrix(11.9552,0,0,-11.9552,265.52943,9.153992)"/>
<use data-text="i" xlink:href="#font_6_10" transform="matrix(11.9552,0,0,-11.9552,274.49583,9.153992)"/>
<use data-text="s" xlink:href="#font_6_17" transform="matrix(11.9552,0,0,-11.9552,277.81938,9.153992)"/>
<use data-text="t" xlink:href="#font_6_18" transform="matrix(11.9552,0,0,-11.9552,285.45875,9.153992)"/>
<use data-text="r" xlink:href="#font_6_16" transform="matrix(11.9552,0,0,-11.9552,288.7823,9.153992)"/>
<use data-text="u" xlink:href="#font_6_19" transform="matrix(11.9552,0,0,-11.9552,293.00248,9.153992)"/>
<use data-text="e" xlink:href="#font_6_7" transform="matrix(11.9552,0,0,-11.9552,298.98008,9.153992)"/>
<use data-text="." xlink:href="#font_6_1" transform="matrix(11.9552,0,0,-11.9552,304.28819,9.153992)"/>
<use data-text="P" xlink:href="#font_6_3" transform="matrix(11.9552,0,0,-11.9552,323.548,9.153992)"/>
<use data-text="p" xlink:href="#font_6_15" transform="matrix(11.9552,0,0,-11.9552,330.1951,9.153992)"/>
</g>
</svg>
