<svg xmlns="http://www.w3.org/2000/svg" xmlns:xlink="http://www.w3.org/1999/xlink" xmlns:inkscape="http://www.inkscape.org/namespaces/inkscape" version="1.1" width="501" height="12" viewBox="0 0 501 12">
<defs>
<clipPath id="clip_1">
<path transform="matrix(1,0,0,-1,-111,637)" d="M0 0H612V792H0Z"/>
</clipPath>
<path id="font_2_1" d="M.36898805 .42404176C.3619995 .42204286 .35499574 .41903688 .34999085 .41503907L.24099732 .56811526C.21798706 .6001282 .20298767 .61013796 .17799378 .61013796 .14698792 .61013796 .12298584 .5861206 .12298584 .5550995 .12298584 .5310974 .13398743 .51509097 .16499329 .4920807L.31999208 .38201905C.31698609 .37702943 .31399537 .36901856 .31298829 .36302186L.1269989 .3940277C.11399841 .3970337 .101989749 .39804078 .09599304 .39804078 .06399536 .39804078 .035995485 .37101747 .035995485 .34100343 .035995485 .31098939 .06399536 .28398133 .09599304 .28398133 .10398865 .28398133 .11399841 .2849884 .1269989 .2869873L.31399537 .31900025C.31599427 .31199647 .31900025 .30499269 .32199098 .2999878L.16899109 .19093323C.13699341 .16893006 .1269989 .15292359 .1269989 .12791443 .1269989 .09689331 .15098572 .07287598 .18199158 .07287598 .20599365 .07287598 .22200012 .08389282 .24499512 .11489868L.35398866 .26896668C.3600006 .26597596 .3659973 .26397706 .37399293 .26197816L.34298707 .07688904C.33999635 .06288147 .33898927 .051879884 .33898927 .0448761 .33898927 .0138549809 .3659973-.014144897 .3959961-.014144897 .42599488-.014144897 .45298768 .0138549809 .45298768 .04586792 .45298768 .053878786 .45199586 .06387329 .44999696 .07688904L.41799928 .26296998C.42399598 .26496888 .43099977 .26797486 .43699647 .27197267L.54599 .11891174C.56799319 .086883548 .58399966 .07688904 .60899356 .07688904 .6399994 .07688904 .6639862 .10089111 .6639862 .13090515 .6639862 .1559143 .6539917 .17193604 .621994 .19494629L.46699525 .3039856C.46998597 .30999757 .47299195 .31799317 .47399903 .32400514L.6599884 .29197694C.6729889 .28997804 .68499758 .2889862 .69099429 .2889862 .72299197 .2889862 .7509918 .31599427 .7509918 .3460083 .7509918 .37602235 .72299197 .4030304 .69099429 .4030304 .6839905 .4030304 .6729889 .40203858 .6599884 .40003968L.47299195 .36802674C.46998597 .37702943 .46798707 .38201905 .46499635 .38702394L.6179962 .4960785C.6489868 .5180969 .6599884 .5341034 .6599884 .55911257 .6599884 .5901184 .6359863 .61413577 .6049957 .61413577 .58099368 .61413577 .5649872 .604126 .5419922 .57211306L.43299867 .41804505C.4269867 .42105104 .42199708 .42304994 .41299439 .42504884L.44400025 .61013796C.44699098 .6241455 .44799806 .6351471 .44799806 .6411438 .44799806 .67315676 .42099 .7011719 .3909912 .7011719 .36099244 .7011719 .33399964 .67315676 .33399964 .6411438 .33399964 .6331482 .33499146 .62213137 .33699037 .61013796L.36898805 .42404176Z"/>
<path id="font_3_1" d="M.44198609 0V.023986817C.35099793 .026000977 .33399964 .041000368 .33399964 .11805725V.68847659H.31698609L.06498718 .5793915V.55337527C.07398987 .5563812 .08198547 .55937197 .084991458 .56137087 .11199951 .5713806 .13699341 .5783844 .1499939 .5783844 .1749878 .5783844 .18598938 .5563812 .18598938 .5093384V.124069217C.18598938 .042007448 .1659851 .024993897 .066986087 .023986817V0H.44198609Z"/>
<path id="font_4_1" d="M.20999146 .2568512C.20999146 .3028412 .17199707 .34184266 .125 .34184266 .07699585 .34184266 .040985109 .30184938 .040985109 .2568512 .040985109 .20983887 .07699585 .17285156 .125 .17285156 .17199707 .17285156 .20999146 .20884705 .20999146 .2568512Z"/>
<path id="font_5_4" d="M.18099976 .04324341C.18099976 .07424927 .15499878 .100250247 .125 .100250247 .09498596 .100250247 .069992069 .07525635 .069992069 .04324341 .069992069 .0052490236 .10398865-.0107421879 .125-.0107421879 .1459961-.0107421879 .18099976 .0062561037 .18099976 .04324341Z"/>
<path id="font_6_4" d="M.9319916 .6430969V.6621094H.73399356V.6430969C.7849884 .6381073 .8029938 .6271057 .8029938 .6001129 .8029938 .5791168 .7969971 .5531311 .7869873 .5251312L.6619873 .186203 .5299988 .5271301 .5179901 .5571289C.5089874 .578125 .5029907 .5971222 .5029907 .6081085 .5029907 .6321106 .526001 .6421051 .5799866 .6430969V.6621094H.31298829V.6430969C.36999513 .6421051 .37998963 .6331024 .4139862 .5531311L.44699098 .47114564 .33999635 .18920899 .19599915 .5651245C.18899536 .5831146 .18499756 .6001129 .18499756 .6111145 .18499756 .6331024 .19898987 .6401062 .25 .6430969V.6621094H.004989624V.6430969C.055999757 .6381073 .070999149 .6201172 .10798645 .5261383L.30099488-.0107421879H.31599427L.46998597 .41215516 .6299896-.0107421879H.644989L.848999 .5721283C.8679962 .624115 .8789978 .6331024 .9319916 .6430969Z"/>
<path id="font_6_10" d="M.4869995 0V.01499939C.43299867 .024993897 .4269867 .032989503 .4269867 .101989749V.30096437C.4269867 .40596009 .3849945 .45996095 .3039856 .45996095 .24499512 .45996095 .20298767 .43595887 .15699768 .3759613V.68003848L.1519928 .68304446C.117996219 .67103579 .09298706 .66304019 .036987306 .6470337L.009994507 .6390381V.6230469C.01399231 .6240387 .016998291 .6240387 .021987915 .6240387 .06498718 .6240387 .07299805 .61602786 .07299805 .5730133V.101989749C.07299805 .03199768 .066986087 .022994996 .008987427 .01499939V0H.22499085V.01499939C.16699219 .020996094 .15699768 .032989503 .15699768 .101989749V.34295655C.19898987 .38894654 .22898865 .40596009 .2679901 .40596009 .31799317 .40596009 .34298707 .36994935 .34298707 .29995729V.101989749C.34298707 .033996583 .33299256 .020996094 .2749939 .01499939V0H.4869995Z"/>
<path id="font_6_9" d="M.42399598 .15727234 .4079895 .16427613C.3600006 .08824158 .31698609 .05921936 .25299073 .05921936 .19799805 .05921936 .1559906 .085235599 .1269989 .13926697 .10699463 .17828369 .09899902 .21330261 .09700012 .27734376H.40499879C.39698792 .34222413 .3869934 .37112428 .3619995 .40301515 .33198548 .43894959 .28599549 .45996095 .23399353 .45996095 .10998535 .45996095 .024993897 .36016847 .024993897 .21430969 .024993897 .07623291 .09700012-.009765625 .21199036-.009765625 .30799867-.009765625 .38198854 .049224855 .42399598 .15727234M.30299378 .30934144H.09899902C.10998535 .38807679 .14399719 .4239502 .20498657 .4239502 .2659912 .4239502 .2899933 .39604188 .30299378 .30934144Z"/>
<path id="font_6_13" d="M.4850006 0V.01499939C.43598939 .019989014 .42399598 .03199768 .42399598 .08097839V.30996705C.42399598 .40394593 .37998963 .45996095 .30599977 .45996095 .2599945 .45996095 .22898865 .4429474 .16099549 .37895204V.45794679L.1539917 .45996095C.10499573 .44203187 .070999149 .43103028 .015991211 .41503907V.3980255C.021987915 .4010315 .03199768 .40203858 .042999269 .40203858 .070999149 .40203858 .07998657 .38703919 .07998657 .33802796V.08999634C.07998657 .032989503 .068984989 .018997193 .017990113 .01499939V0H.22999573V.01499939C.1789856 .018997193 .1639862 .0309906 .1639862 .06700134V.34802247C.21199036 .3929596 .23399353 .404953 .2669983 .404953 .31599427 .404953 .33999635 .3739624 .33999635 .30796815V.098983768C.33999635 .035995485 .32699586 .018997193 .2769928 .01499939V0H.4850006Z"/>
<path id="font_5_1" d="M.5249939 .2909546C.5249939 .3639679 .47200013 .42596437 .37199403 .43896485L.43099977 .6299591 .34799195 .6169586 .30299378 .43795777C.1459961 .42196656 .023986817 .29196168 .023986817 .14396668 .023986817 .06996155 .06399536-.004043579 .19198609-.0110321049L.14498902-.20703125H.16999817L.23199463-.010040283C.3959961 .002960205 .5249939 .1429596 .5249939 .2909546M.44499208 .29896546C.44499208 .12896729 .33898927 .0259552 .24099732 .016967774L.3619995 .40795899C.43099977 .3829651 .44499208 .32395936 .44499208 .29896546M.29599 .41096498 .19898987 .018966675C.13198853 .037963869 .10798645 .098968509 .10798645 .1409607 .10798645 .29496766 .19198609 .3969574 .29599 .41096498Z"/>
<path id="font_5_3" d="M.41600038 .103271488 .4019928 .11128235C.3939972 .10127258 .3889923 .0962677 .37998963 .08427429 .35699464 .054260255 .34599305 .04425049 .33299256 .04425049 .31900025 .04425049 .30999757 .057250978 .30299378 .08526611 .30099488 .0942688 .2999878 .09927368 .29899598 .10127258 .2749939 .1953125 .2630005 .24934387 .2630005 .26434327 .30699159 .3413849 .34298707 .38539125 .36099244 .38539125 .36698915 .38539125 .37599183 .3824005 .3849945 .37739564 .39698792 .37039186 .4039917 .36839295 .41299439 .36839295 .43299867 .36828614 .44699098 .38328553 .44699098 .40429688 .44699098 .4263916 .42999269 .44140626 .4059906 .44140626 .3619995 .44140626 .32499696 .4053955 .25498963 .2983551L.24398804 .3533783C.22999573 .42129518 .21899414 .44128419 .19198609 .44128419 .16899109 .44128419 .13699341 .43328858 .07499695 .41229249L.06399536 .40820313 .067993167 .39318849 .084991458 .39720155C.10398865 .4022827 .115997318 .40429688 .12399292 .40429688 .14898682 .40429688 .15499878 .3952942 .16899109 .33528138L.19799805 .21226502 .115997318 .09526062C.09498596 .06524658 .07598877 .04725647 .06498718 .04725647 .05899048 .04725647 .04899597 .050247194 .038986207 .056259157 .025985718 .06324768 .015991211 .06625366 .0069885256 .06625366-.013000488 .06625366-.027008057 .051254274-.027008057 .03125-.027008057 .0052490236-.008010864-.0107421879 .022994996-.0107421879 .053985597-.0107421879 .06599426-.0017547608 .115997318 .058258058L.20599365 .17626953 .23599243 .056259157C.24899292 .004257202 .2619934-.0107421879 .2939911-.0107421879 .33198548-.0107421879 .35798646 .013244629 .41600038 .103271488Z"/>
<path id="font_6_7" d="M.4119873 .14717102 .397995 .15615845C.34999085 .08621216 .31399537 .06222534 .25698854 .06222534 .16499329 .06222534 .101989749 .14216614 .101989749 .25708009 .101989749 .3610077 .15699768 .43095399 .23799134 .43095399 .27398683 .43095399 .2869873 .41996766 .29699708 .3829956L.30299378 .3610077C.31098939 .33203126 .32899476 .31503297 .35099793 .31503297 .3769989 .31503297 .397995 .33403016 .397995 .3570099 .397995 .41296388 .32798768 .45996095 .24398804 .45996095 .19699097 .45996095 .14898682 .44195558 .10899353 .40896607 .054992677 .3639984 .024993897 .2950592 .024993897 .21211243 .024993897 .08320618 .10398865-.009765625 .21499634-.009765625 .2579956-.009765625 .29599 .0042266848 .32998658 .032226564 .3600006 .056228639 .37998963 .08520508 .4119873 .14717102Z"/>
<path id="font_6_5" d="M.44198609 .040222169V.066207889C.4249878 .052230836 .41299439 .047225954 .397995 .047225954 .375 .047225954 .36799623 .06121826 .36799623 .10519409V.30004884C.36799623 .35101319 .36299134 .3789978 .34899903 .40197755 .32798768 .43995667 .2849884 .45996095 .22399903 .45996095 .17298889 .45996095 .125 .44595338 .09700012 .42295838 .07199097 .40197755 .055999757 .3730011 .055999757 .34802247 .055999757 .32502748 .07499695 .3050537 .09899902 .3050537 .12298584 .3050537 .14399719 .32502748 .14399719 .34701539 .14399719 .35101319 .14299011 .35601808 .14199829 .3630066 .13999939 .37199403 .13899231 .37998963 .13899231 .3869934 .13899231 .41397096 .17098999 .43595887 .21099854 .43595887 .2599945 .43595887 .2869873 .40698243 .2869873 .35301209V.29205323C.1329956 .23010254 .115997318 .22210694 .07299805 .18412781 .050994874 .1641388 .036987306 .13017273 .036987306 .09719849 .036987306 .034225465 .07998657-.009765625 .14199829-.009765625 .18598938-.009765625 .22698975 .011230469 .28799439 .06321716 .29299928 .010223389 .31098939-.009765625 .35198976-.009765625 .38598634-.009765625 .40699769 .0022277833 .44198609 .040222169M.2869873 .123168949C.2869873 .0921936 .28199769 .08320618 .26098634 .07020569 .23699951 .056228639 .20899964 .048233034 .18798828 .048233034 .15299988 .048233034 .125 .0821991 .125 .12516785V.12916565C.125 .18812561 .1659851 .22410584 .2869873 .2680664V.123168949Z"/>
<path id="font_6_6" d="M.46798707 .24307251C.46798707 .36598207 .3919983 .45996095 .2919922 .45996095 .23098755 .45996095 .17298889 .4239502 .15299988 .37496949V.68104556L.147995 .68304446C.10598755 .66804507 .07899475 .6600342 .03199768 .6470337L.0029907227 .6390381V.6230469C.008987427 .6240387 .0129852299 .6240387 .019989014 .6240387 .05999756 .6240387 .068984989 .615036 .068984989 .5730133V.05419922C.068984989 .023223877 .1539917-.009765625 .23399353-.009765625 .3659973-.009765625 .46798707 .10017395 .46798707 .24307251M.37998963 .19709778C.37998963 .08618164 .33198548 .022232056 .25 .022232056 .19799805 .022232056 .15299988 .045211793 .15299988 .07019043V.32200624C.15299988 .36097718 .19999695 .3969574 .2519989 .3969574 .32998658 .3969574 .37998963 .3190155 .37998963 .19709778Z"/>
<path id="font_6_16" d="M.34799195 .11816406C.34799195 .1681366 .32499696 .20111084 .2639923 .23709107L.1559906 .3010559C.12799073 .31704713 .11299133 .34202577 .11299133 .36901856 .11299133 .4099884 .14399719 .4369812 .18998719 .4369812 .24699402 .4369812 .2769928 .4039917 .2999878 .31404115H.31498719L.31098939 .4499817H.2999878L.2979889 .4479828C.2889862 .440979 .28799439 .43997193 .28399659 .43997193 .27799989 .43997193 .2679901 .44197084 .25698854 .4469757 .23599243 .4549713 .21299744 .45898438 .18899536 .45898438 .10699463 .45898438 .050994874 .40899659 .050994874 .33602906 .050994874 .28007508 .08299255 .24108887 .16799927 .19212342L.22599793 .15913391C.26098634 .1391449 .27799989 .11515808 .27799989 .08418274 .27799989 .04020691 .24598694 .01222229 .19499207 .01222229 .12599182 .01222229 .09098816 .050201417 .067993167 .15214539H.051986696V-.003768921H.06498718C.07199097 .006225586 .07598877 .008224487 .08799744 .008224487 .09899902 .008224487 .10998535 .006225586 .13398743 .00022888184 .1619873-.0057678224 .18699646-.009765625 .20799256-.009765625 .28399659-.009765625 .34799195 .048202516 .34799195 .11816406Z"/>
<path id="font_6_15" d="M.33499146 .4069519C.33499146 .43995667 .31399537 .45996095 .27999879 .45996095 .23799134 .45996095 .20899964 .43695069 .1599884 .36595155V.45794679L.15499878 .45996095C.101989749 .43795777 .06599426 .42495729 .0069885256 .40596009V.3899536C.020996094 .3929596 .02999878 .39395143 .041992189 .39395143 .066986087 .39395143 .07598877 .3779602 .07598877 .33395387V.083984378C.07598877 .033996583 .068984989 .026992798 .004989624 .01499939V0H.24499512V.01499939C.1769867 .017990113 .1599884 .032989503 .1599884 .08998108V.31495667C.1599884 .34695436 .20298767 .3969574 .22999573 .3969574 .23599243 .3969574 .24499512 .3919525 .2559967 .381958 .27198792 .36795045 .2829895 .36195375 .29599 .36195375 .31999208 .36195375 .33499146 .37895204 .33499146 .4069519Z"/>
<path id="font_6_17" d="M.2789917 .066223148 .2659912 .07722473C.24398804 .051223756 .22799683 .04222107 .20599365 .04222107 .16899109 .04222107 .1539917 .068222049 .1539917 .1322174V.41818238H.25498963V.4501953H.1539917V.5661926C.1539917 .57618716 .1519928 .5791931 .14698792 .5791931 .14099121 .56918337 .13398743 .56018069 .1269989 .55119326 .08999634 .4961853 .055999757 .45918275 .02999878 .44418336 .018997193 .43719483 .0129852299 .43118287 .0129852299 .42518617 .0129852299 .42218019 .01399231 .42018128 .016998291 .41818238H.069992069V.11721802C.069992069 .033233644 .099990848-.009765625 .1579895-.009765625 .20799256-.009765625 .24598694 .014221191 .2789917 .066223148Z"/>
<path id="font_6_8" d="M.4909973 .04222107V.05821228C.47299195 .05722046 .47099305 .05722046 .46798707 .05722046 .43199159 .05722046 .42399598 .06820679 .42399598 .11418152V.68104556L.4189911 .68304446C.37098695 .66604617 .33599855 .6560364 .27198792 .6390381V.6230469C.27999879 .6240387 .28599549 .6240387 .2939911 .6240387 .33099366 .6240387 .33999635 .61402896 .33999635 .5730133V.41696168C.3019867 .44895936 .2749939 .45996095 .23498535 .45996095 .11999512 .45996095 .026992798 .34701539 .026992798 .20510865 .026992798 .07720947 .101989749-.009765625 .21199036-.009765625 .2679901-.009765625 .30599977 .010223389 .33999635 .05722046V-.0067749025L.34399415-.009765625 .4909973 .04222107M.33999635 .10218811C.33999635 .095184329 .33299256 .08319092 .32299806 .07220459 .30499269 .052215578 .27999879 .04222107 .25099183 .04222107 .16799927 .04222107 .11299133 .122177127 .11299133 .24508667 .11299133 .3580017 .1619873 .4319458 .23799134 .4319458 .29100038 .4319458 .33999635 .3849945 .33999635 .33203126V.10218811Z"/>
<path id="font_6_1" d="M.19499207 .013137817C.19499207 .06312561 .1599884 .102127078 .114990238 .102127078 .07998657 .102127078 .055999757 .07913208 .055999757 .045135499 .055999757 .013137817 .07899475-.005859375 .114990238-.005859375 .12098694-.005859375 .12799073-.0048675539 .13398743-.0038604737 .14099121-.0018615723 .14199829-.0018615723 .14199829-.0018615723 .1499939-.0018615723 .1559906-.007873535 .1559906-.01586914 .1559906-.04786682 .12799073-.084869388 .07398987-.12187195L.08299255-.14086914C.1499939-.10786438 .19499207-.04685974 .19499207 .013137817Z"/>
<path id="font_6_19" d="M.69400027 .43518067V.4501953H.57099917V.43518067C.6049957 .42819215 .61499026 .42118836 .61499026 .40419007 .61499026 .38920594 .60899356 .36520387 .59799197 .33821107L.5079956 .11628723 .42399598 .34020997C.40699769 .38619996 .40699769 .38619996 .40699769 .39920045 .40699769 .42118836 .41799928 .42819215 .46499635 .43518067V.4501953H.2619934V.43518067C.29899598 .43118287 .31098939 .42019654 .33099366 .36621095L.35099793 .31022645 .2599945 .11128235 .16099549 .37220765C.15699768 .38220216 .15499878 .39219667 .15499878 .40219117 .15499878 .42318727 .16699219 .43118287 .20098877 .43518067V.4501953H.020996094V.43518067C.04399109 .43318177 .051986696 .42318727 .07398987 .37220765L.20899964 .030303956C.22099304 .00032043458 .22898865-.013671875 .23498535-.013671875 .23999024-.013671875 .24798584-.0006866455 .2599945 .025314331L.37199403 .26524354 .46299745 .029312134C.47698976-.007675171 .48098756-.013671875 .4869995-.013671875 .49398805-.013671875 .49899293-.0046844484 .5149994 .035308839L.6529999 .38121034C.67099 .42318727 .673996 .42819215 .69400027 .43518067Z"/>
<path id="font_6_11" d="M.25299073 0V.01499939C.18699646 .019989014 .1789856 .02998352 .1789856 .101989749V.45695497L.1749878 .45996095 .019989014 .404953V.3899536L.027999878 .3909607C.039993287 .3929596 .052993776 .39396668 .06199646 .39396668 .085998538 .39396668 .09498596 .3779602 .09498596 .33396913V.101989749C.09498596 .02998352 .084991458 .018997193 .015991211 .01499939V0H.25299073M.18798828 .63204959C.18798828 .66004946 .1659851 .68304446 .13699341 .68304446 .10899353 .68304446 .085998538 .66004946 .085998538 .63204959 .085998538 .6030426 .10899353 .5810547 .13699341 .5810547 .1659851 .5810547 .18798828 .6030426 .18798828 .63204959Z"/>
<path id="font_6_12" d="M.25698854 0V.01499939C.19299317 .018997193 .18199158 .0289917 .18199158 .083999637V.68104556L.17799378 .68304446C.12599182 .66604617 .08799744 .6560364 .018997193 .6390381V.6230469H.024993897C.035995485 .6240387 .04798889 .6250458 .055999757 .6250458 .08799744 .6250458 .09799194 .6110382 .09799194 .56404116V.08699036C.09799194 .032989503 .083999637 .019989014 .020996094 .01499939V0H.25698854Z"/>
<path id="font_6_18" d="M.47698976 .43518067V.4501953H.33799745V.43518067C.36999513 .43218995 .3849945 .42219544 .3849945 .40319825 .3849945 .39320375 .3829956 .38320924 .3789978 .37319947L.27999879 .11428833 .17799378 .37020875C.17199707 .38420106 .16899109 .39819337 .16899109 .40719605 .16899109 .42518617 .17999268 .43218995 .21499634 .43518067V.4501953H.018997193V.43518067C.056991579 .43318177 .06399536 .42318727 .10998535 .32022096L.22999573 .033309938C.23199463 .027313233 .23498535 .020309449 .23799134 .012313843 .24398804-.0056762697 .25-.013671875 .2559967-.013671875 .2619934-.013671875 .2689972-.0006866455 .28399659 .03630066L.4119873 .35720826C.44099427 .42518617 .44699098 .43218995 .47698976 .43518067Z"/>
<path id="font_4_2" d="M.6239929 .25732423C.6239929 .40335084 .5049896 .5263672 .35798646 .5263672H.051986696V.4363556H.3619995C.45899964 .4363556 .5339966 .3523407 .5339966 .25732423 .5339966 .16529846 .45599366 .07827759 .3619995 .07827759H.051986696V-.01171875H.35798646C.5049896-.01171875 .6239929 .11128235 .6239929 .25732423Z"/>
<path id="font_5_2" d="M.6139984 .42922975C.45799256 .42723084 .43099977 .26922608 .3999939 .15722656 .37298585 .05822754 .2979889 .030227662 .24198914 .030227662L.42599488 .6242218 .34298707 .6112213 .19898987 .029220581C.15299988 .029220581 .10598755 .04522705 .10598755 .120224 .10598755 .18022156 .1499939 .25022889 .1499939 .33822633 .1499939 .39923097 .116989139 .42922975 .04699707 .42922975L.04399109 .41722108C.051986696 .41722108 .07598877 .41223146 .07598877 .3562317 .07598877 .31022645 .027999878 .19223023 .027999878 .13922119 .027999878 .017227173 .1499939-.010772705 .18798828-.010772705L.14099121-.20652771H.16499329L.22999573-.009765625C.32099916-.009765625 .44799806 .030227662 .4889984 .17922974L.5249939 .30923463C.5359955 .350235 .57598879 .41423036 .61099246 .41622926L.6139984 .42922975Z"/>
<path id="font_6_2" d="M.18099976 .04324341C.18099976 .07424927 .15499878 .100250247 .125 .100250247 .09498596 .100250247 .069992069 .07424927 .069992069 .04324341 .069992069 .014251709 .09498596-.0107421879 .12399292-.0107421879 .15499878-.0107421879 .18099976 .014251709 .18099976 .04324341Z"/>
<path id="font_6_3" d="M.5419922 .48109437C.5419922 .52308657 .5279999 .5610962 .5009918 .59010317 .46099855 .63409426 .37399293 .6621094 .27999879 .6621094H.015991211V.6430969C.08999634 .6351013 .099990848 .6251068 .099990848 .5531006V.120025638C.099990848 .035995485 .09199524 .026000977 .015991211 .018997193V0H.29599V.018997193C.21699524 .021987915 .20199585 .035995485 .20199585 .10902405V.29107667C.22799683 .28907777 .24499512 .28808595 .2709961 .28808595 .34899903 .28808595 .40299989 .29808045 .44599916 .32208253 .5059967 .3540802 .5419922 .41508485 .5419922 .48109437M.43299867 .4750824C.43299867 .37808229 .37399293 .32807923 .25898744 .32807923 .23899842 .32807923 .22499085 .32907105 .20199585 .3310852V.591095C.20199585 .618103 .20899964 .6251068 .23599243 .6251068 .37098695 .6251068 .43299867 .5780945 .43299867 .4750824Z"/>
<path id="font_6_14" d="M.46998597 .24707031C.46998597 .37097169 .3999939 .45996095 .30299378 .45996095 .24699402 .45996095 .20298767 .43495179 .15899658 .3809662V.45794679L.15299988 .45996095C.09899902 .43917848 .06399536 .42617799 .008987427 .4091797V.39317323C.017990113 .39416505 .024993897 .39416505 .033996583 .39416505 .067993167 .39416505 .07499695 .38417054 .07499695 .33717347V-.13079834C.07499695-.1828003 .06399536-.19380188 .004989624-.19979859V-.21679688H.24699402V-.19880677C.17199707-.19779969 .15899658-.1867981 .15899658-.123794559V.033218385C.19400025 .00022888184 .21798706-.009765625 .2599945-.009765625 .37799073-.009765625 .46998597 .10221863 .46998597 .24719239V.24707031M.38398744 .20820618C.38398744 .097213748 .33499146 .022232056 .2630005 .022232056 .21598816 .022232056 .15899658 .05822754 .15899658 .08821106V.33418275C.15899658 .36398316 .21499634 .39994813 .26098634 .39994813 .33499146 .39994813 .38398744 .32400514 .38398744 .2080841V.20820618Z"/>
</defs>
<g clip-path="url(#clip_1)">
<use data-text="&#x274b;" xlink:href="#font_2_1" transform="matrix(8.966759,0,0,-8.966759,-.14600373,9.153992)"/>
<use data-text="1" xlink:href="#font_3_1" transform="matrix(11.9552,0,0,-11.9552,6.8929979,9.153992)"/>
<use data-text="&#x00b7;" xlink:href="#font_4_1" transform="matrix(11.9552,0,0,-11.9552,12.989998,7.7369997)"/>
<use data-text="1" xlink:href="#font_3_1" transform="matrix(11.9552,0,0,-11.9552,16.098999,9.153992)"/>
<use data-text="1" xlink:href="#font_3_1" transform="matrix(11.9552,0,0,-11.9552,22.0766,9.153992)"/>
<use data-text="." xlink:href="#font_5_4" transform="matrix(11.9552,0,0,-11.9552,28.244996,9.153992)"/>
<use data-text="W" xlink:href="#font_6_4" transform="matrix(11.9552,0,0,-11.9552,34.425996,9.153992)"/>
<use data-text="h" xlink:href="#font_6_10" transform="matrix(11.9552,0,0,-11.9552,45.7117,9.153992)"/>
<use data-text="e" xlink:href="#font_6_9" transform="matrix(11.9552,0,0,-11.9552,51.6893,9.153992)"/>
<use data-text="n" xlink:href="#font_6_13" transform="matrix(11.9552,0,0,-11.9552,56.997407,9.153992)"/>
<use data-text="&#x1d719;" xlink:href="#font_5_1" transform="matrix(11.9552,0,0,-11.9552,66.26199,9.153992)"/>
<use data-text="&#x1d465;" xlink:href="#font_5_3" transform="matrix(11.9552,0,0,-11.9552,73.07646,9.153992)"/>
<use data-text="c" xlink:href="#font_6_7" transform="matrix(11.9552,0,0,-11.9552,81.953998,9.153992)"/>
<use data-text="a" xlink:href="#font_6_5" transform="matrix(11.9552,0,0,-11.9552,87.2621,9.153992)"/>
<use data-text="n" xlink:href="#font_6_13" transform="matrix(11.9552,0,0,-11.9552,92.570209,9.153992)"/>
<use data-text="b" xlink:href="#font_6_6" transform="matrix(11.9552,0,0,-11.9552,101.536609,9.153992)"/>
<use data-text="e" xlink:href="#font_6_9" transform="matrix(11.9552,0,0,-11.9552,107.514209,9.153992)"/>
<use data-text="a" xlink:href="#font_6_5" transform="matrix(11.9552,0,0,-11.9552,115.81111,9.153992)"/>
<use data-text="s" xlink:href="#font_6_16" transform="matrix(11.9552,0,0,-11.9552,121.11922,9.153992)"/>
<use data-text="s" xlink:href="#font_6_16" transform="matrix(11.9552,0,0,-11.9552,125.76979,9.153992)"/>
<use data-text="e" xlink:href="#font_6_9" transform="matrix(11.9552,0,0,-11.9552,130.42037,9.153992)"/>
<use data-text="r" xlink:href="#font_6_15" transform="matrix(11.9552,0,0,-11.9552,135.72847,9.153992)"/>
<use data-text="t" xlink:href="#font_6_17" transform="matrix(11.9552,0,0,-11.9552,140.00843,9.153992)"/>
<use data-text="e" xlink:href="#font_6_9" transform="matrix(11.9552,0,0,-11.9552,143.33197,9.153992)"/>
<use data-text="d" xlink:href="#font_6_8" transform="matrix(11.9552,0,0,-11.9552,148.64008,9.153992)"/>
<use data-text="," xlink:href="#font_6_1" transform="matrix(11.9552,0,0,-11.9552,154.61768,9.153992)"/>
<use data-text="w" xlink:href="#font_6_19" transform="matrix(11.9552,0,0,-11.9552,160.59528,9.153992)"/>
<use data-text="h" xlink:href="#font_6_10" transform="matrix(11.9552,0,0,-11.9552,169.22693,9.153992)"/>
<use data-text="e" xlink:href="#font_6_9" transform="matrix(11.9552,0,0,-11.9552,175.20453,9.153992)"/>
<use data-text="r" xlink:href="#font_6_15" transform="matrix(11.9552,0,0,-11.9552,180.51264,9.153992)"/>
<use data-text="e" xlink:href="#font_6_9" transform="matrix(11.9552,0,0,-11.9552,184.49372,9.153992)"/>
<use data-text="&#x1d465;" xlink:href="#font_5_3" transform="matrix(11.9552,0,0,-11.9552,192.78998,9.153992)"/>
<use data-text="i" xlink:href="#font_6_11" transform="matrix(11.9552,0,0,-11.9552,201.66699,9.153992)"/>
<use data-text="s" xlink:href="#font_6_16" transform="matrix(11.9552,0,0,-11.9552,204.99054,9.153992)"/>
<use data-text="a" xlink:href="#font_6_5" transform="matrix(11.9552,0,0,-11.9552,212.62992,9.153992)"/>
<use data-text="r" xlink:href="#font_6_15" transform="matrix(11.9552,0,0,-11.9552,220.92682,9.153992)"/>
<use data-text="e" xlink:href="#font_6_9" transform="matrix(11.9552,0,0,-11.9552,224.9079,9.153992)"/>
<use data-text="a" xlink:href="#font_6_5" transform="matrix(11.9552,0,0,-11.9552,230.216,9.153992)"/>
<use data-text="l" xlink:href="#font_6_12" transform="matrix(11.9552,0,0,-11.9552,235.52411,9.153992)"/>
<use data-text="v" xlink:href="#font_6_18" transform="matrix(11.9552,0,0,-11.9552,241.83646,9.153992)"/>
<use data-text="a" xlink:href="#font_6_5" transform="matrix(11.9552,0,0,-11.9552,247.51517,9.153992)"/>
<use data-text="r" xlink:href="#font_6_15" transform="matrix(11.9552,0,0,-11.9552,252.82328,9.153992)"/>
<use data-text="i" xlink:href="#font_6_11" transform="matrix(11.9552,0,0,-11.9552,257.04347,9.153992)"/>
<use data-text="a" xlink:href="#font_6_5" transform="matrix(11.9552,0,0,-11.9552,260.367,9.153992)"/>
<use data-text="b" xlink:href="#font_6_6" transform="matrix(11.9552,0,0,-11.9552,265.6751,9.153992)"/>
<use data-text="l" xlink:href="#font_6_12" transform="matrix(11.9552,0,0,-11.9552,271.6527,9.153992)"/>
<use data-text="e" xlink:href="#font_6_9" transform="matrix(11.9552,0,0,-11.9552,274.97627,9.153992)"/>
<use data-text="," xlink:href="#font_6_1" transform="matrix(11.9552,0,0,-11.9552,280.28437,9.153992)"/>
<use data-text="a" xlink:href="#font_6_5" transform="matrix(11.9552,0,0,-11.9552,286.26197,9.153992)"/>
<use data-text="n" xlink:href="#font_6_13" transform="matrix(11.9552,0,0,-11.9552,291.57008,9.153992)"/>
<use data-text="d" xlink:href="#font_6_8" transform="matrix(11.9552,0,0,-11.9552,297.54768,9.153992)"/>
<use data-text="&#x1d719;" xlink:href="#font_5_1" transform="matrix(11.9552,0,0,-11.9552,306.81199,9.153992)"/>
<use data-text="&#x1d465;" xlink:href="#font_5_3" transform="matrix(11.9552,0,0,-11.9552,313.62644,9.153992)"/>
<use data-text="&#x2283;" xlink:href="#font_4_2" transform="matrix(11.9552,0,0,-11.9552,322.52998,9.153992)"/>
<use data-text="&#x2283;" xlink:href="#font_4_2" transform="matrix(11.9552,0,0,-11.9552,322.52998,9.153992)"/>
<use data-text="&#x2283;" xlink:href="#font_4_2" transform="matrix(11.9552,0,0,-11.9552,322.52998,9.153992)"/>
<use data-text="&#x1d713;" xlink:href="#font_5_2" transform="matrix(11.9552,0,0,-11.9552,333.63899,9.153992)"/>
<use data-text="&#x1d465;" xlink:href="#font_5_3" transform="matrix(11.9552,0,0,-11.9552,341.5892,9.153992)"/>
<use data-text="c" xlink:href="#font_6_7" transform="matrix(11.9552,0,0,-11.9552,350.46598,9.153992)"/>
<use data-text="a" xlink:href="#font_6_5" transform="matrix(11.9552,0,0,-11.9552,355.77409,9.153992)"/>
<use data-text="n" xlink:href="#font_6_13" transform="matrix(11.9552,0,0,-11.9552,361.08219,9.153992)"/>
<use data-text="b" xlink:href="#font_6_6" transform="matrix(11.9552,0,0,-11.9552,370.04859,9.153992)"/>
<use data-text="e" xlink:href="#font_6_9" transform="matrix(11.9552,0,0,-11.9552,376.02619,9.153992)"/>
<use data-text="a" xlink:href="#font_6_5" transform="matrix(11.9552,0,0,-11.9552,384.3231,9.153992)"/>
<use data-text="s" xlink:href="#font_6_16" transform="matrix(11.9552,0,0,-11.9552,389.6312,9.153992)"/>
<use data-text="s" xlink:href="#font_6_16" transform="matrix(11.9552,0,0,-11.9552,394.28178,9.153992)"/>
<use data-text="e" xlink:href="#font_6_9" transform="matrix(11.9552,0,0,-11.9552,398.93235,9.153992)"/>
<use data-text="r" xlink:href="#font_6_15" transform="matrix(11.9552,0,0,-11.9552,404.24049,9.153992)"/>
<use data-text="t" xlink:href="#font_6_17" transform="matrix(11.9552,0,0,-11.9552,408.52046,9.153992)"/>
<use data-text="e" xlink:href="#font_6_9" transform="matrix(11.9552,0,0,-11.9552,411.844,9.153992)"/>
<use data-text="d" xlink:href="#font_6_8" transform="matrix(11.9552,0,0,-11.9552,417.1521,9.153992)"/>
<use data-text="," xlink:href="#font_6_1" transform="matrix(11.9552,0,0,-11.9552,423.1297,9.153992)"/>
<use data-text="w" xlink:href="#font_6_19" transform="matrix(11.9552,0,0,-11.9552,429.10737,9.153992)"/>
<use data-text="h" xlink:href="#font_6_10" transform="matrix(11.9552,0,0,-11.9552,437.739,9.153992)"/>
<use data-text="e" xlink:href="#font_6_9" transform="matrix(11.9552,0,0,-11.9552,443.7166,9.153992)"/>
<use data-text="r" xlink:href="#font_6_15" transform="matrix(11.9552,0,0,-11.9552,449.02473,9.153992)"/>
<use data-text="e" xlink:href="#font_6_9" transform="matrix(11.9552,0,0,-11.9552,453.0058,9.153992)"/>
<use data-text="&#x1d465;" xlink:href="#font_5_3" transform="matrix(11.9552,0,0,-11.9552,461.302,9.153992)"/>
<use data-text="i" xlink:href="#font_6_11" transform="matrix(11.9552,0,0,-11.9552,470.17903,9.153992)"/>
<use data-text="s" xlink:href="#font_6_16" transform="matrix(11.9552,0,0,-11.9552,473.50257,9.153992)"/>
<use data-text="a" xlink:href="#font_6_5" transform="matrix(11.9552,0,0,-11.9552,481.14198,9.153992)"/>
<use data-text="r" xlink:href="#font_6_15" transform="matrix(11.9552,0,0,-11.9552,489.4389,9.153992)"/>
<use data-text="e" xlink:href="#font_6_9" transform="matrix(11.9552,0,0,-11.9552,493.41999,9.153992)"/>
<use data-text="a" xlink:href="#font_6_5" transform="matrix(11.9552,0,0,-11.9552,498.7281,9.153992)"/>
<use data-text="l" xlink:href="#font_6_12" transform="matrix(11.9552,0,0,-11.9552,504.0362,9.153992)"/>
<use data-text="v" xlink:href="#font_6_18" transform="matrix(11.9552,0,0,-11.9552,510.34858,9.153992)"/>
<use data-text="a" xlink:href="#font_6_5" transform="matrix(11.9552,0,0,-11.9552,516.0273,9.153992)"/>
<use data-text="r" xlink:href="#font_6_15" transform="matrix(11.9552,0,0,-11.9552,521.3354,9.153992)"/>
<use data-text="i" xlink:href="#font_6_11" transform="matrix(11.9552,0,0,-11.9552,525.55557,9.153992)"/>
<use data-text="a" xlink:href="#font_6_5" transform="matrix(11.9552,0,0,-11.9552,528.8791,9.153992)"/>
<use data-text="b" xlink:href="#font_6_6" transform="matrix(11.9552,0,0,-11.9552,534.1872,9.153992)"/>
<use data-text="l" xlink:href="#font_6_12" transform="matrix(11.9552,0,0,-11.9552,540.1648,9.153992)"/>
<use data-text="e" xlink:href="#font_6_9" transform="matrix(11.9552,0,0,-11.9552,543.48837,9.153992)"/>
<use data-text="," xlink:href="#font_6_1" transform="matrix(11.9552,0,0,-11.9552,548.79647,9.153992)"/>
<use data-text="t" xlink:href="#font_6_17" transform="matrix(11.9552,0,0,-11.9552,554.7741,9.153992)"/>
<use data-text="h" xlink:href="#font_6_10" transform="matrix(11.9552,0,0,-11.9552,558.09768,9.153992)"/>
<use data-text="e" xlink:href="#font_6_9" transform="matrix(11.9552,0,0,-11.9552,564.07528,9.153992)"/>
<use data-text="n" xlink:href="#font_6_13" transform="matrix(11.9552,0,0,-11.9552,569.38339,9.153992)"/>
<use data-text="&#x1d713;" xlink:href="#font_5_2" transform="matrix(11.9552,0,0,-11.9552,578.361,9.153992)"/>
<use data-text="&#x1d465;" xlink:href="#font_5_3" transform="matrix(11.9552,0,0,-11.9552,586.3112,9.153992)"/>
<use data-text="c" xlink:href="#font_6_7" transform="matrix(11.9552,0,0,-11.9552,595.18807,9.153992)"/>
<use data-text="a" xlink:href="#font_6_5" transform="matrix(11.9552,0,0,-11.9552,600.49618,9.153992)"/>
<use data-text="n" xlink:href="#font_6_13" transform="matrix(11.9552,0,0,-11.9552,605.80429,9.153992)"/>
<use data-text="b" xlink:href="#font_6_6" transform="matrix(11.9552,0,0,-11.9552,614.7707,9.153992)"/>
<use data-text="e" xlink:href="#font_6_9" transform="matrix(11.9552,0,0,-11.9552,620.7483,9.153992)"/>
<use data-text="a" xlink:href="#font_6_5" transform="matrix(11.9552,0,0,-11.9552,629.0452,9.153992)"/>
<use data-text="s" xlink:href="#font_6_16" transform="matrix(11.9552,0,0,-11.9552,634.35336,9.153992)"/>
<use data-text="s" xlink:href="#font_6_16" transform="matrix(11.9552,0,0,-11.9552,639.0039,9.153992)"/>
<use data-text="e" xlink:href="#font_6_9" transform="matrix(11.9552,0,0,-11.9552,643.6545,9.153992)"/>
<use data-text="r" xlink:href="#font_6_15" transform="matrix(11.9552,0,0,-11.9552,648.9626,9.153992)"/>
<use data-text="t" xlink:href="#font_6_17" transform="matrix(11.9552,0,0,-11.9552,653.24258,9.153992)"/>
<use data-text="e" xlink:href="#font_6_9" transform="matrix(11.9552,0,0,-11.9552,656.5661,9.153992)"/>
<use data-text="d" xlink:href="#font_6_8" transform="matrix(11.9552,0,0,-11.9552,661.8742,9.153992)"/>
<use data-text="," xlink:href="#font_6_1" transform="matrix(11.9552,0,0,-11.9552,667.8518,9.153992)"/>
<use data-text="w" xlink:href="#font_6_19" transform="matrix(11.9552,0,0,-11.9552,673.8294,9.153992)"/>
<use data-text="h" xlink:href="#font_6_10" transform="matrix(11.9552,0,0,-11.9552,682.46109,9.153992)"/>
<use data-text="e" xlink:href="#font_6_9" transform="matrix(11.9552,0,0,-11.9552,688.43869,9.153992)"/>
<use data-text="r" xlink:href="#font_6_15" transform="matrix(11.9552,0,0,-11.9552,693.74679,9.153992)"/>
<use data-text="e" xlink:href="#font_6_9" transform="matrix(11.9552,0,0,-11.9552,697.72787,9.153992)"/>
<use data-text="&#x1d465;" xlink:href="#font_5_3" transform="matrix(11.9552,0,0,-11.9552,706.02407,9.153992)"/>
<use data-text="i" xlink:href="#font_6_11" transform="matrix(11.9552,0,0,-11.9552,714.90109,9.153992)"/>
<use data-text="s" xlink:href="#font_6_16" transform="matrix(11.9552,0,0,-11.9552,718.2246,9.153992)"/>
<use data-text="a" xlink:href="#font_6_5" transform="matrix(11.9552,0,0,-11.9552,725.864,9.153992)"/>
<use data-text="r" xlink:href="#font_6_15" transform="matrix(11.9552,0,0,-11.9552,734.16098,9.153992)"/>
<use data-text="e" xlink:href="#font_6_9" transform="matrix(11.9552,0,0,-11.9552,738.142,9.153992)"/>
<use data-text="a" xlink:href="#font_6_5" transform="matrix(11.9552,0,0,-11.9552,743.45016,9.153992)"/>
<use data-text="l" xlink:href="#font_6_12" transform="matrix(11.9552,0,0,-11.9552,748.75827,9.153992)"/>
<use data-text="v" xlink:href="#font_6_18" transform="matrix(11.9552,0,0,-11.9552,755.0706,9.153992)"/>
<use data-text="a" xlink:href="#font_6_5" transform="matrix(11.9552,0,0,-11.9552,760.7493,9.153992)"/>
<use data-text="r" xlink:href="#font_6_15" transform="matrix(11.9552,0,0,-11.9552,766.05746,9.153992)"/>
<use data-text="i" xlink:href="#font_6_11" transform="matrix(11.9552,0,0,-11.9552,770.2776,9.153992)"/>
<use data-text="a" xlink:href="#font_6_5" transform="matrix(11.9552,0,0,-11.9552,773.60116,9.153992)"/>
<use data-text="b" xlink:href="#font_6_6" transform="matrix(11.9552,0,0,-11.9552,778.90927,9.153992)"/>
<use data-text="l" xlink:href="#font_6_12" transform="matrix(11.9552,0,0,-11.9552,784.88687,9.153992)"/>
<use data-text="e" xlink:href="#font_6_9" transform="matrix(11.9552,0,0,-11.9552,788.2104,9.153992)"/>
<use data-text="." xlink:href="#font_6_2" transform="matrix(11.9552,0,0,-11.9552,793.5185,9.153992)"/>
<use data-text="P" xlink:href="#font_6_3" transform="matrix(11.9552,0,0,-11.9552,812.7784,9.153992)"/>
<use data-text="p" xlink:href="#font_6_14" transform="matrix(11.9552,0,0,-11.9552,819.4255,9.153992)"/>
</g>
</svg>
