<svg xmlns="http://www.w3.org/2000/svg" xmlns:xlink="http://www.w3.org/1999/xlink" xmlns:inkscape="http://www.inkscape.org/namespaces/inkscape" version="1.1" width="147" height="12" viewBox="0 0 147 12">
<defs>
<clipPath id="clip_1">
<path transform="matrix(1,0,0,-1,-231,649)" d="M0 0H612V792H0Z"/>
</clipPath>
<path id="font_2_1" d="M.36898805 .42404176C.3619995 .42204286 .35499574 .41903688 .34999085 .41503907L.24099732 .56811526C.21798706 .6001282 .20298767 .61013796 .17799378 .61013796 .14698792 .61013796 .12298584 .5861206 .12298584 .5550995 .12298584 .5310974 .13398743 .51509097 .16499329 .4920807L.31999208 .38201905C.31698609 .37702943 .31399537 .36901856 .31298829 .36302186L.1269989 .3940277C.11399841 .3970337 .101989749 .39804078 .09599304 .39804078 .06399536 .39804078 .035995485 .37101747 .035995485 .34100343 .035995485 .31098939 .06399536 .28398133 .09599304 .28398133 .10398865 .28398133 .11399841 .2849884 .1269989 .2869873L.31399537 .31900025C.31599427 .31199647 .31900025 .30499269 .32199098 .2999878L.16899109 .19093323C.13699341 .16893006 .1269989 .15292359 .1269989 .12791443 .1269989 .09689331 .15098572 .07287598 .18199158 .07287598 .20599365 .07287598 .22200012 .08389282 .24499512 .11489868L.35398866 .26896668C.3600006 .26597596 .3659973 .26397706 .37399293 .26197816L.34298707 .07688904C.33999635 .06288147 .33898927 .051879884 .33898927 .0448761 .33898927 .0138549809 .3659973-.014144897 .3959961-.014144897 .42599488-.014144897 .45298768 .0138549809 .45298768 .04586792 .45298768 .053878786 .45199586 .06387329 .44999696 .07688904L.41799928 .26296998C.42399598 .26496888 .43099977 .26797486 .43699647 .27197267L.54599 .11891174C.56799319 .086883548 .58399966 .07688904 .60899356 .07688904 .6399994 .07688904 .6639862 .10089111 .6639862 .13090515 .6639862 .1559143 .6539917 .17193604 .621994 .19494629L.46699525 .3039856C.46998597 .30999757 .47299195 .31799317 .47399903 .32400514L.6599884 .29197694C.6729889 .28997804 .68499758 .2889862 .69099429 .2889862 .72299197 .2889862 .7509918 .31599427 .7509918 .3460083 .7509918 .37602235 .72299197 .4030304 .69099429 .4030304 .6839905 .4030304 .6729889 .40203858 .6599884 .40003968L.47299195 .36802674C.46998597 .37702943 .46798707 .38201905 .46499635 .38702394L.6179962 .4960785C.6489868 .5180969 .6599884 .5341034 .6599884 .55911257 .6599884 .5901184 .6359863 .61413577 .6049957 .61413577 .58099368 .61413577 .5649872 .604126 .5419922 .57211306L.43299867 .41804505C.4269867 .42105104 .42199708 .42304994 .41299439 .42504884L.44400025 .61013796C.44699098 .6241455 .44799806 .6351471 .44799806 .6411438 .44799806 .67315676 .42099 .7011719 .3909912 .7011719 .36099244 .7011719 .33399964 .67315676 .33399964 .6411438 .33399964 .6331482 .33499146 .62213137 .33699037 .61013796L.36898805 .42404176Z"/>
<path id="font_3_1" d="M.44198609 0V.023986817C.35099793 .026000977 .33399964 .041000368 .33399964 .11805725V.68847659H.31698609L.06498718 .5793915V.55337527C.07398987 .5563812 .08198547 .55937197 .084991458 .56137087 .11199951 .5713806 .13699341 .5783844 .1499939 .5783844 .1749878 .5783844 .18598938 .5563812 .18598938 .5093384V.124069217C.18598938 .042007448 .1659851 .024993897 .066986087 .023986817V0H.44198609Z"/>
<path id="font_4_1" d="M.20999146 .2568512C.20999146 .3028412 .17199707 .34184266 .125 .34184266 .07699585 .34184266 .040985109 .30184938 .040985109 .2568512 .040985109 .20983887 .07699585 .17285156 .125 .17285156 .17199707 .17285156 .20999146 .20884705 .20999146 .2568512Z"/>
<path id="font_3_2" d="M.47499085 .14387512V.2548828H.4119873V.68847659H.33198548L.272995 .61135867C.14498902 .44413758 .07899475 .352005 .018997193 .2568817V.14387512H.2669983V0H.4119873V.14387512H.47499085M.2689972 .2548828H.05999756L.2689972 .5522766V.2548828Z"/>
<path id="font_5_1" d="M.18099976 .04324341C.18099976 .07424927 .15499878 .100250247 .125 .100250247 .09498596 .100250247 .069992069 .07424927 .069992069 .04324341 .069992069 .014251709 .09498596-.0107421879 .12399292-.0107421879 .15499878-.0107421879 .18099976 .014251709 .18099976 .04324341Z"/>
<path id="font_4_4" d="M.4249878 .20898438V.30497743H.1579895V.51397708H.06199646V0H.1579895V.20898438H.4249878Z"/>
<path id="font_6_1" d="M.46899415 .31636048C.46899415 .39439393 .42599488 .44140626 .35398866 .44140626 .2889862 .44140626 .24099732 .4093933 .18299866 .32836915L.21398926 .4373932C.21398926 .4373932 .21199036 .44140626 .20899964 .44140626H.20799256L.053985597 .41929627 .055999757 .40429688C.085998538 .40429688 .12098694 .40429688 .12098694 .37728883 .12098694 .36528016 .085998538 .2272644 .049987794 .09425354L-.008010864-.12957764C-.018005372-.17550659-.03201294-.18748474-.07501221-.18847656V-.20448303H.12998963V-.18948365C.08299255-.18948365 .06599426-.18148804 .06599426-.15953064 .06599426-.14555359 .08299255-.07066345 .102996829 .0062561037 .12799073-.0067443849 .1459961-.0107421879 .16899109-.0107421879 .31498719-.0107421879 .46899415 .15631104 .46899415 .31636048M.3789978 .31336976C.3789978 .24734497 .35198976 .16430664 .30999757 .10328674 .2669983 .040267946 .21798706 .008255005 .16499329 .008255005 .13699341 .008255005 .116989139 .023254395 .116989139 .04525757 .116989139 .07926941 .1519928 .20932007 .18199158 .28434754 .20799256 .3503723 .2639923 .39839173 .31298829 .39839173 .31399537 .39839173 .31599427 .39839173 .31698609 .39839173 .3600006 .39639283 .3789978 .37039186 .3789978 .31336976Z"/>
<path id="font_4_3" d="M.6319885 .57499697H.5309906L.34799195 .16699219 .16299439 .57499697H.06199646L.32798768 0H.36799623L.6319885 .57499697Z"/>
<path id="font_6_2" d="M.3929901-.20452881V-.18652344H.37599183C.33898927-.18652344 .31900025-.17654419 .31698609-.16156006 .31698609-.15856934 .31799317-.15457154 .32099916-.14657593L.48298646 .4263916H.4099884L.394989 .37937928C.3789978 .42539979 .35899354 .44140626 .31799317 .44140626 .18499756 .44140626 .024993897 .25733949 .024993897 .105270389 .024993897 .03425598 .06399536-.0107421879 .1269989-.0107421879 .19799805-.0107421879 .24398804 .025253296 .33299256 .1532898L.24598694-.1355896C.23298645-.17555237 .21699524-.1845398 .1519928-.1885376V-.20452881H.3929901M.37998963 .359375C.37998963 .27633668 .31399537 .13728333 .24598694 .07826233 .21998596 .055252077 .19198609 .042251588 .16699219 .042251588 .13198853 .042251588 .11099243 .072265628 .11099243 .119277957 .11099243 .1933136 .16299439 .30334474 .22799683 .3703766 .25898744 .4013977 .2919922 .41940309 .32099916 .41940309 .35398866 .41940309 .37998963 .39237977 .37998963 .359375Z"/>
<path id="font_4_2" d="M.6239929 .25732423C.6239929 .40335084 .5049896 .5263672 .35798646 .5263672H.051986696V.4363556H.3619995C.45899964 .4363556 .5339966 .3523407 .5339966 .25732423 .5339966 .16529846 .45599366 .07827759 .3619995 .07827759H.051986696V-.01171875H.35798646C.5049896-.01171875 .6239929 .11128235 .6239929 .25732423Z"/>
<path id="font_5_2" d="M.5419922 .48109437C.5419922 .52308657 .5279999 .5610962 .5009918 .59010317 .46099855 .63409426 .37399293 .6621094 .27999879 .6621094H.015991211V.6430969C.08999634 .6351013 .099990848 .6251068 .099990848 .5531006V.120025638C.099990848 .035995485 .09199524 .026000977 .015991211 .018997193V0H.29599V.018997193C.21699524 .021987915 .20199585 .035995485 .20199585 .10902405V.29107667C.22799683 .28907777 .24499512 .28808595 .2709961 .28808595 .34899903 .28808595 .40299989 .29808045 .44599916 .32208253 .5059967 .3540802 .5419922 .41508485 .5419922 .48109437M.43299867 .4750824C.43299867 .37808229 .37399293 .32807923 .25898744 .32807923 .23899842 .32807923 .22499085 .32907105 .20199585 .3310852V.591095C.20199585 .618103 .20899964 .6251068 .23599243 .6251068 .37098695 .6251068 .43299867 .5780945 .43299867 .4750824Z"/>
<path id="font_5_3" d="M.46998597 .24707031C.46998597 .37097169 .3999939 .45996095 .30299378 .45996095 .24699402 .45996095 .20298767 .43495179 .15899658 .3809662V.45794679L.15299988 .45996095C.09899902 .43917848 .06399536 .42617799 .008987427 .4091797V.39317323C.017990113 .39416505 .024993897 .39416505 .033996583 .39416505 .067993167 .39416505 .07499695 .38417054 .07499695 .33717347V-.13079834C.07499695-.1828003 .06399536-.19380188 .004989624-.19979859V-.21679688H.24699402V-.19880677C.17199707-.19779969 .15899658-.1867981 .15899658-.123794559V.033218385C.19400025 .00022888184 .21798706-.009765625 .2599945-.009765625 .37799073-.009765625 .46998597 .10221863 .46998597 .24719239V.24707031M.38398744 .20820618C.38398744 .097213748 .33499146 .022232056 .2630005 .022232056 .21598816 .022232056 .15899658 .05822754 .15899658 .08821106V.33418275C.15899658 .36398316 .21499634 .39994813 .26098634 .39994813 .33499146 .39994813 .38398744 .32400514 .38398744 .2080841V.20820618Z"/>
<path id="font_6_3" d="M.18099976 .04324341C.18099976 .07424927 .15499878 .100250247 .125 .100250247 .09498596 .100250247 .069992069 .07525635 .069992069 .04324341 .069992069 .0052490236 .10398865-.0107421879 .125-.0107421879 .1459961-.0107421879 .18099976 .0062561037 .18099976 .04324341Z"/>
</defs>
<g clip-path="url(#clip_1)">
<use data-text="&#x274b;" xlink:href="#font_2_1" transform="matrix(8.966759,0,0,-8.966759,.23300171,9.198975)"/>
<use data-text="1" xlink:href="#font_3_1" transform="matrix(11.9552,0,0,-11.9552,7.272003,9.198975)"/>
<use data-text="&#x00b7;" xlink:href="#font_4_1" transform="matrix(11.9552,0,0,-11.9552,13.369003,7.7819826)"/>
<use data-text="4" xlink:href="#font_3_2" transform="matrix(11.9552,0,0,-11.9552,16.477005,9.198975)"/>
<use data-text="." xlink:href="#font_5_1" transform="matrix(11.9552,0,0,-11.9552,22.455002,9.198975)"/>
<use data-text="&#x22a2;" xlink:href="#font_4_4" transform="matrix(5.9776,0,0,-11.9552,29.759003,9.198975)"/>
<path transform="matrix(1,0,0,-1,34.663003,5.1939747)" d="M0 0H1.614V1.614H0Z"/>
<path transform="matrix(1,0,0,-1,34.663003,9.198975)" d="M0 0H1.614V1.614H0Z"/>
<use data-text="&#x1d45d;" xlink:href="#font_6_1" transform="matrix(11.9552,0,0,-11.9552,40.47,9.198975)"/>
<use data-text="&#x2228;" xlink:href="#font_4_3" transform="matrix(11.9552,0,0,-11.9552,49.583009,9.198975)"/>
<use data-text="&#x2228;" xlink:href="#font_4_3" transform="matrix(11.9552,0,0,-11.9552,49.583009,9.198975)"/>
<use data-text="&#x2228;" xlink:href="#font_4_3" transform="matrix(11.9552,0,0,-11.9552,49.583009,9.198975)"/>
<use data-text="&#x1d45e;" xlink:href="#font_6_2" transform="matrix(11.9552,0,0,-11.9552,60.716005,9.198975)"/>
<path transform="matrix(1,0,0,-1,70.492008,9.198975)" d="M0 0H1.614V1.614H0Z"/>
<use data-text="&#x2283;" xlink:href="#font_4_2" transform="matrix(11.9552,0,0,-11.9552,75.78601,9.198975)"/>
<use data-text="&#x2283;" xlink:href="#font_4_2" transform="matrix(11.9552,0,0,-11.9552,75.78601,9.198975)"/>
<use data-text="&#x2283;" xlink:href="#font_4_2" transform="matrix(11.9552,0,0,-11.9552,75.78601,9.198975)"/>
<path transform="matrix(1,0,0,-1,87.547,9.198975)" d="M0 0H1.614V1.614H0Z"/>
<use data-text="&#x1d45e;" xlink:href="#font_6_2" transform="matrix(11.9552,0,0,-11.9552,92.66101,9.198975)"/>
<use data-text="&#x2228;" xlink:href="#font_4_3" transform="matrix(11.9552,0,0,-11.9552,101.77402,9.198975)"/>
<use data-text="&#x2228;" xlink:href="#font_4_3" transform="matrix(11.9552,0,0,-11.9552,101.77402,9.198975)"/>
<use data-text="&#x2228;" xlink:href="#font_4_3" transform="matrix(11.9552,0,0,-11.9552,101.77402,9.198975)"/>
<use data-text="&#x1d45d;" xlink:href="#font_6_1" transform="matrix(11.9552,0,0,-11.9552,113.600009,9.198975)"/>
<use data-text="P" xlink:href="#font_5_2" transform="matrix(11.9552,0,0,-11.9552,132.01102,9.198975)"/>
<use data-text="p" xlink:href="#font_5_3" transform="matrix(11.9552,0,0,-11.9552,138.65811,9.198975)"/>
<use data-text="." xlink:href="#font_6_3" transform="matrix(11.9552,0,0,-11.9552,144.82703,9.198975)"/>
</g>
</svg>
