<svg xmlns="http://www.w3.org/2000/svg" xmlns:xlink="http://www.w3.org/1999/xlink" xmlns:inkscape="http://www.inkscape.org/namespaces/inkscape" version="1.1" width="433" height="12" viewBox="0 0 433 12">
<defs>
<clipPath id="clip_1">
<path transform="matrix(1,0,0,-1,-111,637)" d="M0 0H612V792H0Z"/>
</clipPath>
<path id="font_2_1" d="M.36898805 .42404176C.3619995 .42204286 .35499574 .41903688 .34999085 .41503907L.24099732 .56811526C.21798706 .6001282 .20298767 .61013796 .17799378 .61013796 .14698792 .61013796 .12298584 .5861206 .12298584 .5550995 .12298584 .5310974 .13398743 .51509097 .16499329 .4920807L.31999208 .38201905C.31698609 .37702943 .31399537 .36901856 .31298829 .36302186L.1269989 .3940277C.11399841 .3970337 .101989749 .39804078 .09599304 .39804078 .06399536 .39804078 .035995485 .37101747 .035995485 .34100343 .035995485 .31098939 .06399536 .28398133 .09599304 .28398133 .10398865 .28398133 .11399841 .2849884 .1269989 .2869873L.31399537 .31900025C.31599427 .31199647 .31900025 .30499269 .32199098 .2999878L.16899109 .19093323C.13699341 .16893006 .1269989 .15292359 .1269989 .12791443 .1269989 .09689331 .15098572 .07287598 .18199158 .07287598 .20599365 .07287598 .22200012 .08389282 .24499512 .11489868L.35398866 .26896668C.3600006 .26597596 .3659973 .26397706 .37399293 .26197816L.34298707 .07688904C.33999635 .06288147 .33898927 .051879884 .33898927 .0448761 .33898927 .0138549809 .3659973-.014144897 .3959961-.014144897 .42599488-.014144897 .45298768 .0138549809 .45298768 .04586792 .45298768 .053878786 .45199586 .06387329 .44999696 .07688904L.41799928 .26296998C.42399598 .26496888 .43099977 .26797486 .43699647 .27197267L.54599 .11891174C.56799319 .086883548 .58399966 .07688904 .60899356 .07688904 .6399994 .07688904 .6639862 .10089111 .6639862 .13090515 .6639862 .1559143 .6539917 .17193604 .621994 .19494629L.46699525 .3039856C.46998597 .30999757 .47299195 .31799317 .47399903 .32400514L.6599884 .29197694C.6729889 .28997804 .68499758 .2889862 .69099429 .2889862 .72299197 .2889862 .7509918 .31599427 .7509918 .3460083 .7509918 .37602235 .72299197 .4030304 .69099429 .4030304 .6839905 .4030304 .6729889 .40203858 .6599884 .40003968L.47299195 .36802674C.46998597 .37702943 .46798707 .38201905 .46499635 .38702394L.6179962 .4960785C.6489868 .5180969 .6599884 .5341034 .6599884 .55911257 .6599884 .5901184 .6359863 .61413577 .6049957 .61413577 .58099368 .61413577 .5649872 .604126 .5419922 .57211306L.43299867 .41804505C.4269867 .42105104 .42199708 .42304994 .41299439 .42504884L.44400025 .61013796C.44699098 .6241455 .44799806 .6351471 .44799806 .6411438 .44799806 .67315676 .42099 .7011719 .3909912 .7011719 .36099244 .7011719 .33399964 .67315676 .33399964 .6411438 .33399964 .6331482 .33499146 .62213137 .33699037 .61013796L.36898805 .42404176Z"/>
<path id="font_3_1" d="M.44198609 0V.023986817C.35099793 .026000977 .33399964 .041000368 .33399964 .11805725V.68847659H.31698609L.06498718 .5793915V.55337527C.07398987 .5563812 .08198547 .55937197 .084991458 .56137087 .11199951 .5713806 .13699341 .5783844 .1499939 .5783844 .1749878 .5783844 .18598938 .5563812 .18598938 .5093384V.124069217C.18598938 .042007448 .1659851 .024993897 .066986087 .023986817V0H.44198609Z"/>
<path id="font_4_1" d="M.20999146 .2568512C.20999146 .3028412 .17199707 .34184266 .125 .34184266 .07699585 .34184266 .040985109 .30184938 .040985109 .2568512 .040985109 .20983887 .07699585 .17285156 .125 .17285156 .17199707 .17285156 .20999146 .20884705 .20999146 .2568512Z"/>
<path id="font_3_2" d="M.47698976 .67578127H.06098938L.016998291 .45381166H.041992189C.06098938 .51779177 .084991458 .5387726 .13999939 .5387726H.34700013L.14698792 0H.24198914L.47698976 .67578127Z"/>
<path id="font_5_2" d="M.18099976 .04324341C.18099976 .07424927 .15499878 .100250247 .125 .100250247 .09498596 .100250247 .069992069 .07424927 .069992069 .04324341 .069992069 .014251709 .09498596-.0107421879 .12399292-.0107421879 .15499878-.0107421879 .18099976 .014251709 .18099976 .04324341Z"/>
<path id="font_5_3" d="M.31498719 0V.018997193C.23298645 .021987915 .21699524 .035995485 .21699524 .10900879V.5530853C.21699524 .62609866 .23098755 .6390991 .31498719 .6430969V.6621094H.017990113V.6430969C.102996829 .6381073 .114990238 .6271057 .114990238 .5530853V.10900879C.114990238 .033996583 .101989749 .021987915 .017990113 .018997193V0H.31498719Z"/>
<path id="font_5_8" d="M.3829956 .62124636C.3829956 .65727236 .33898927 .6832733 .2789917 .6832733 .21598816 .6832733 .1639862 .65626528 .13798523 .61125186 .11199951 .5662384 .10398865 .5302124 .102996829 .4501953H.020996094V.41818238H.102996829V.104034427C.102996829 .03100586 .09199524 .018997193 .019989014 .01499939V0H.27999879V.01499939C.19799805 .017990113 .18699646 .0289917 .18699646 .104034427V.41818238H.30899049V.4501953H.18598938V.5662384C.18598938 .6252594 .20498657 .65527346 .24299622 .65527346 .2649994 .65527346 .27799989 .6452637 .29599 .6162567 .31199647 .5892334 .32398988 .5802307 .34098817 .5802307 .36499024 .5802307 .3829956 .5982361 .3829956 .62124636Z"/>
<path id="font_6_1" d="M.46899415 .31636048C.46899415 .39439393 .42599488 .44140626 .35398866 .44140626 .2889862 .44140626 .24099732 .4093933 .18299866 .32836915L.21398926 .4373932C.21398926 .4373932 .21199036 .44140626 .20899964 .44140626H.20799256L.053985597 .41929627 .055999757 .40429688C.085998538 .40429688 .12098694 .40429688 .12098694 .37728883 .12098694 .36528016 .085998538 .2272644 .049987794 .09425354L-.008010864-.12957764C-.018005372-.17550659-.03201294-.18748474-.07501221-.18847656V-.20448303H.12998963V-.18948365C.08299255-.18948365 .06599426-.18148804 .06599426-.15953064 .06599426-.14555359 .08299255-.07066345 .102996829 .0062561037 .12799073-.0067443849 .1459961-.0107421879 .16899109-.0107421879 .31498719-.0107421879 .46899415 .15631104 .46899415 .31636048M.3789978 .31336976C.3789978 .24734497 .35198976 .16430664 .30999757 .10328674 .2669983 .040267946 .21798706 .008255005 .16499329 .008255005 .13699341 .008255005 .116989139 .023254395 .116989139 .04525757 .116989139 .07926941 .1519928 .20932007 .18199158 .28434754 .20799256 .3503723 .2639923 .39839173 .31298829 .39839173 .31399537 .39839173 .31599427 .39839173 .31698609 .39839173 .3600006 .39639283 .3789978 .37039186 .3789978 .31336976Z"/>
<path id="font_5_5" d="M.44198609 .040222169V.066207889C.4249878 .052230836 .41299439 .047225954 .397995 .047225954 .375 .047225954 .36799623 .06121826 .36799623 .10519409V.30004884C.36799623 .35101319 .36299134 .3789978 .34899903 .40197755 .32798768 .43995667 .2849884 .45996095 .22399903 .45996095 .17298889 .45996095 .125 .44595338 .09700012 .42295838 .07199097 .40197755 .055999757 .3730011 .055999757 .34802247 .055999757 .32502748 .07499695 .3050537 .09899902 .3050537 .12298584 .3050537 .14399719 .32502748 .14399719 .34701539 .14399719 .35101319 .14299011 .35601808 .14199829 .3630066 .13999939 .37199403 .13899231 .37998963 .13899231 .3869934 .13899231 .41397096 .17098999 .43595887 .21099854 .43595887 .2599945 .43595887 .2869873 .40698243 .2869873 .35301209V.29205323C.1329956 .23010254 .115997318 .22210694 .07299805 .18412781 .050994874 .1641388 .036987306 .13017273 .036987306 .09719849 .036987306 .034225465 .07998657-.009765625 .14199829-.009765625 .18598938-.009765625 .22698975 .011230469 .28799439 .06321716 .29299928 .010223389 .31098939-.009765625 .35198976-.009765625 .38598634-.009765625 .40699769 .0022277833 .44198609 .040222169M.2869873 .123168949C.2869873 .0921936 .28199769 .08320618 .26098634 .07020569 .23699951 .056228639 .20899964 .048233034 .18798828 .048233034 .15299988 .048233034 .125 .0821991 .125 .12516785V.12916565C.125 .18812561 .1659851 .22410584 .2869873 .2680664V.123168949Z"/>
<path id="font_5_12" d="M.4850006 0V.01499939C.43598939 .019989014 .42399598 .03199768 .42399598 .08097839V.30996705C.42399598 .40394593 .37998963 .45996095 .30599977 .45996095 .2599945 .45996095 .22898865 .4429474 .16099549 .37895204V.45794679L.1539917 .45996095C.10499573 .44203187 .070999149 .43103028 .015991211 .41503907V.3980255C.021987915 .4010315 .03199768 .40203858 .042999269 .40203858 .070999149 .40203858 .07998657 .38703919 .07998657 .33802796V.08999634C.07998657 .032989503 .068984989 .018997193 .017990113 .01499939V0H.22999573V.01499939C.1789856 .018997193 .1639862 .0309906 .1639862 .06700134V.34802247C.21199036 .3929596 .23399353 .404953 .2669983 .404953 .31599427 .404953 .33999635 .3739624 .33999635 .30796815V.098983768C.33999635 .035995485 .32699586 .018997193 .2769928 .01499939V0H.4850006Z"/>
<path id="font_5_6" d="M.4909973 .04222107V.05821228C.47299195 .05722046 .47099305 .05722046 .46798707 .05722046 .43199159 .05722046 .42399598 .06820679 .42399598 .11418152V.68104556L.4189911 .68304446C.37098695 .66604617 .33599855 .6560364 .27198792 .6390381V.6230469C.27999879 .6240387 .28599549 .6240387 .2939911 .6240387 .33099366 .6240387 .33999635 .61402896 .33999635 .5730133V.41696168C.3019867 .44895936 .2749939 .45996095 .23498535 .45996095 .11999512 .45996095 .026992798 .34701539 .026992798 .20510865 .026992798 .07720947 .101989749-.009765625 .21199036-.009765625 .2679901-.009765625 .30599977 .010223389 .33999635 .05722046V-.0067749025L.34399415-.009765625 .4909973 .04222107M.33999635 .10218811C.33999635 .095184329 .33299256 .08319092 .32299806 .07220459 .30499269 .052215578 .27999879 .04222107 .25099183 .04222107 .16799927 .04222107 .11299133 .122177127 .11299133 .24508667 .11299133 .3580017 .1619873 .4319458 .23799134 .4319458 .29100038 .4319458 .33999635 .3849945 .33999635 .33203126V.10218811Z"/>
<path id="font_6_2" d="M.3929901-.20452881V-.18652344H.37599183C.33898927-.18652344 .31900025-.17654419 .31698609-.16156006 .31698609-.15856934 .31799317-.15457154 .32099916-.14657593L.48298646 .4263916H.4099884L.394989 .37937928C.3789978 .42539979 .35899354 .44140626 .31799317 .44140626 .18499756 .44140626 .024993897 .25733949 .024993897 .105270389 .024993897 .03425598 .06399536-.0107421879 .1269989-.0107421879 .19799805-.0107421879 .24398804 .025253296 .33299256 .1532898L.24598694-.1355896C.23298645-.17555237 .21699524-.1845398 .1519928-.1885376V-.20452881H.3929901M.37998963 .359375C.37998963 .27633668 .31399537 .13728333 .24598694 .07826233 .21998596 .055252077 .19198609 .042251588 .16699219 .042251588 .13198853 .042251588 .11099243 .072265628 .11099243 .119277957 .11099243 .1933136 .16299439 .30334474 .22799683 .3703766 .25898744 .4013977 .2919922 .41940309 .32099916 .41940309 .35398866 .41940309 .37998963 .39237977 .37998963 .359375Z"/>
<path id="font_5_15" d="M.33499146 .4069519C.33499146 .43995667 .31399537 .45996095 .27999879 .45996095 .23799134 .45996095 .20899964 .43695069 .1599884 .36595155V.45794679L.15499878 .45996095C.101989749 .43795777 .06599426 .42495729 .0069885256 .40596009V.3899536C.020996094 .3929596 .02999878 .39395143 .041992189 .39395143 .066986087 .39395143 .07598877 .3779602 .07598877 .33395387V.083984378C.07598877 .033996583 .068984989 .026992798 .004989624 .01499939V0H.24499512V.01499939C.1769867 .017990113 .1599884 .032989503 .1599884 .08998108V.31495667C.1599884 .34695436 .20298767 .3969574 .22999573 .3969574 .23599243 .3969574 .24499512 .3919525 .2559967 .381958 .27198792 .36795045 .2829895 .36195375 .29599 .36195375 .31999208 .36195375 .33499146 .37895204 .33499146 .4069519Z"/>
<path id="font_5_7" d="M.42399598 .15727234 .4079895 .16427613C.3600006 .08824158 .31698609 .05921936 .25299073 .05921936 .19799805 .05921936 .1559906 .085235599 .1269989 .13926697 .10699463 .17828369 .09899902 .21330261 .09700012 .27734376H.40499879C.39698792 .34222413 .3869934 .37112428 .3619995 .40301515 .33198548 .43894959 .28599549 .45996095 .23399353 .45996095 .10998535 .45996095 .024993897 .36016847 .024993897 .21430969 .024993897 .07623291 .09700012-.009765625 .21199036-.009765625 .30799867-.009765625 .38198854 .049224855 .42399598 .15727234M.30299378 .30934144H.09899902C.10998535 .38807679 .14399719 .4239502 .20498657 .4239502 .2659912 .4239502 .2899933 .39604188 .30299378 .30934144Z"/>
<path id="font_5_10" d="M.25698854 0V.01499939C.19299317 .018997193 .18199158 .0289917 .18199158 .083999637V.68104556L.17799378 .68304446C.12599182 .66604617 .08799744 .6560364 .018997193 .6390381V.6230469H.024993897C.035995485 .6240387 .04798889 .6250458 .055999757 .6250458 .08799744 .6250458 .09799194 .6110382 .09799194 .56404116V.08699036C.09799194 .032989503 .083999637 .019989014 .020996094 .01499939V0H.25698854Z"/>
<path id="font_5_11" d="M.7749939 0V.01499939L.7489929 .016998291C.71899417 .018997193 .70599368 .036987306 .70599368 .07598877V.28196717C.70599368 .39994813 .6669922 .45996095 .58999636 .45996095 .5319977 .45996095 .48098756 .43395997 .4269867 .3759613 .40899659 .43295289 .375 .45996095 .32099916 .45996095 .2769928 .45996095 .24899292 .44595338 .1659851 .38294984V.45794679L.15899658 .45996095C.10798645 .44102479 .07398987 .43003846 .018997193 .41503907V.3980255C.03199768 .4010315 .039993287 .40203858 .050994874 .40203858 .07699585 .40203858 .085998538 .3860321 .085998538 .33802796V.085006717C.085998538 .0309906 .07199097 .015991211 .015991211 .01499939V0H.23799134V.01499939C.18499756 .016998291 .16999817 .027999878 .16999817 .06700134V.34902955C.16999817 .34902955 .17799378 .36102296 .18499756 .36802674 .20999146 .3909607 .25299073 .40795899 .28799439 .40795899 .33198548 .40795899 .35398866 .37295533 .35398866 .30296327V.08598328C.35398866 .02998352 .34298707 .018997193 .28599549 .01499939V0H.5099945V.01499939C.45298768 .015991211 .43798829 .032989503 .43798829 .09498596V.34695436C.46798707 .3899536 .5009918 .40795899 .5469971 .40795899 .60398867 .40795899 .621994 .38095094 .621994 .29795838V.08699036C.621994 .02998352 .6139984 .021987915 .55599978 .01499939V0H.7749939Z"/>
<path id="font_5_17" d="M.2789917 .066223148 .2659912 .07722473C.24398804 .051223756 .22799683 .04222107 .20599365 .04222107 .16899109 .04222107 .1539917 .068222049 .1539917 .1322174V.41818238H.25498963V.4501953H.1539917V.5661926C.1539917 .57618716 .1519928 .5791931 .14698792 .5791931 .14099121 .56918337 .13398743 .56018069 .1269989 .55119326 .08999634 .4961853 .055999757 .45918275 .02999878 .44418336 .018997193 .43719483 .0129852299 .43118287 .0129852299 .42518617 .0129852299 .42218019 .01399231 .42018128 .016998291 .41818238H.069992069V.11721802C.069992069 .033233644 .099990848-.009765625 .1579895-.009765625 .20799256-.009765625 .24598694 .014221191 .2789917 .066223148Z"/>
<path id="font_5_18" d="M.47499085 .43518067V.4501953H.33999635V.43518067C.37199403 .43518067 .3880005 .42619325 .3880005 .41018678 .3880005 .40618897 .3869934 .40019227 .38398744 .39318849L.2869873 .11720276 .17199707 .37019349C.1659851 .3841858 .1619873 .39718629 .1619873 .40818788 .1619873 .42619325 .1769867 .43318177 .21998596 .43518067V.4501953H.01399231V.43618775C.039993287 .43218995 .056991579 .42118836 .06498718 .40419007L.22999573 .05619812C.23699951 .03919983 .24099732 .02720642 .24099732 .019195557 .24099732 .004196167 .21798706-.058792116 .20098877-.08879089 .18699646-.11479187 .16499329-.13378906 .15098572-.13378906 .14498902-.13378906 .13598633-.13179016 .12599182-.12680054 .10699463-.11979675 .08999634-.11579895 .07299805-.11579895 .049987794-.11579895 .02999878-.13580323 .02999878-.15979004 .02999878-.1927948 .06199646-.21780396 .10398865-.21780396 .17098999-.21780396 .21899414-.1618042 .272995-.017807007L.4269867 .3901825C.43998719 .42219544 .45098878 .43218995 .47499085 .43518067Z"/>
<path id="font_5_14" d="M.46998597 .24707031C.46998597 .37097169 .3999939 .45996095 .30299378 .45996095 .24699402 .45996095 .20298767 .43495179 .15899658 .3809662V.45794679L.15299988 .45996095C.09899902 .43917848 .06399536 .42617799 .008987427 .4091797V.39317323C.017990113 .39416505 .024993897 .39416505 .033996583 .39416505 .067993167 .39416505 .07499695 .38417054 .07499695 .33717347V-.13079834C.07499695-.1828003 .06399536-.19380188 .004989624-.19979859V-.21679688H.24699402V-.19880677C.17199707-.19779969 .15899658-.1867981 .15899658-.123794559V.033218385C.19400025 .00022888184 .21798706-.009765625 .2599945-.009765625 .37799073-.009765625 .46998597 .10221863 .46998597 .24719239V.24707031M.38398744 .20820618C.38398744 .097213748 .33499146 .022232056 .2630005 .022232056 .21598816 .022232056 .15899658 .05822754 .15899658 .08821106V.33418275C.15899658 .36398316 .21499634 .39994813 .26098634 .39994813 .33499146 .39994813 .38398744 .32400514 .38398744 .2080841V.20820618Z"/>
<path id="font_5_13" d="M.46998597 .23408509C.46998597 .3650055 .37799073 .45996095 .25 .45996095 .11999512 .45996095 .0289917 .3639984 .0289917 .22608948 .0289917 .09118652 .12199402-.009765625 .24798584-.009765625 .37399293-.009765625 .46998597 .09617615 .46998597 .23408509M.37998963 .19911194C.37998963 .08618164 .33499146 .018234253 .2599945 .018234253 .22099304 .018234253 .18399048 .04220581 .16299439 .08218384 .1349945 .13415528 .11898804 .20410156 .11898804 .27505494 .11898804 .36999513 .1659851 .4319458 .23699951 .4319458 .32099916 .4319458 .37998963 .3360138 .37998963 .19911194Z"/>
<path id="font_5_16" d="M.34799195 .11816406C.34799195 .1681366 .32499696 .20111084 .2639923 .23709107L.1559906 .3010559C.12799073 .31704713 .11299133 .34202577 .11299133 .36901856 .11299133 .4099884 .14399719 .4369812 .18998719 .4369812 .24699402 .4369812 .2769928 .4039917 .2999878 .31404115H.31498719L.31098939 .4499817H.2999878L.2979889 .4479828C.2889862 .440979 .28799439 .43997193 .28399659 .43997193 .27799989 .43997193 .2679901 .44197084 .25698854 .4469757 .23599243 .4549713 .21299744 .45898438 .18899536 .45898438 .10699463 .45898438 .050994874 .40899659 .050994874 .33602906 .050994874 .28007508 .08299255 .24108887 .16799927 .19212342L.22599793 .15913391C.26098634 .1391449 .27799989 .11515808 .27799989 .08418274 .27799989 .04020691 .24598694 .01222229 .19499207 .01222229 .12599182 .01222229 .09098816 .050201417 .067993167 .15214539H.051986696V-.003768921H.06498718C.07199097 .006225586 .07598877 .008224487 .08799744 .008224487 .09899902 .008224487 .10998535 .006225586 .13398743 .00022888184 .1619873-.0057678224 .18699646-.009765625 .20799256-.009765625 .28399659-.009765625 .34799195 .048202516 .34799195 .11816406Z"/>
<path id="font_5_9" d="M.25299073 0V.01499939C.18699646 .019989014 .1789856 .02998352 .1789856 .101989749V.45695497L.1749878 .45996095 .019989014 .404953V.3899536L.027999878 .3909607C.039993287 .3929596 .052993776 .39396668 .06199646 .39396668 .085998538 .39396668 .09498596 .3779602 .09498596 .33396913V.101989749C.09498596 .02998352 .084991458 .018997193 .015991211 .01499939V0H.25299073M.18798828 .63204959C.18798828 .66004946 .1659851 .68304446 .13699341 .68304446 .10899353 .68304446 .085998538 .66004946 .085998538 .63204959 .085998538 .6030426 .10899353 .5810547 .13699341 .5810547 .1659851 .5810547 .18798828 .6030426 .18798828 .63204959Z"/>
<path id="font_5_1" d="M.19499207 .013137817C.19499207 .06312561 .1599884 .102127078 .114990238 .102127078 .07998657 .102127078 .055999757 .07913208 .055999757 .045135499 .055999757 .013137817 .07899475-.005859375 .114990238-.005859375 .12098694-.005859375 .12799073-.0048675539 .13398743-.0038604737 .14099121-.0018615723 .14199829-.0018615723 .14199829-.0018615723 .1499939-.0018615723 .1559906-.007873535 .1559906-.01586914 .1559906-.04786682 .12799073-.084869388 .07398987-.12187195L.08299255-.14086914C.1499939-.10786438 .19499207-.04685974 .19499207 .013137817Z"/>
<path id="font_4_2" d="M.6319885 .57499697H.5309906L.34799195 .16699219 .16299439 .57499697H.06199646L.32798768 0H.36799623L.6319885 .57499697Z"/>
<path id="font_5_4" d="M.5419922 .48109437C.5419922 .52308657 .5279999 .5610962 .5009918 .59010317 .46099855 .63409426 .37399293 .6621094 .27999879 .6621094H.015991211V.6430969C.08999634 .6351013 .099990848 .6251068 .099990848 .5531006V.120025638C.099990848 .035995485 .09199524 .026000977 .015991211 .018997193V0H.29599V.018997193C.21699524 .021987915 .20199585 .035995485 .20199585 .10902405V.29107667C.22799683 .28907777 .24499512 .28808595 .2709961 .28808595 .34899903 .28808595 .40299989 .29808045 .44599916 .32208253 .5059967 .3540802 .5419922 .41508485 .5419922 .48109437M.43299867 .4750824C.43299867 .37808229 .37399293 .32807923 .25898744 .32807923 .23899842 .32807923 .22499085 .32907105 .20199585 .3310852V.591095C.20199585 .618103 .20899964 .6251068 .23599243 .6251068 .37098695 .6251068 .43299867 .5780945 .43299867 .4750824Z"/>
<path id="font_6_3" d="M.18099976 .04324341C.18099976 .07424927 .15499878 .100250247 .125 .100250247 .09498596 .100250247 .069992069 .07525635 .069992069 .04324341 .069992069 .0052490236 .10398865-.0107421879 .125-.0107421879 .1459961-.0107421879 .18099976 .0062561037 .18099976 .04324341Z"/>
</defs>
<g clip-path="url(#clip_1)">
<use data-text="&#x274b;" xlink:href="#font_2_1" transform="matrix(8.966759,0,0,-8.966759,-.14600373,9.153992)"/>
<use data-text="1" xlink:href="#font_3_1" transform="matrix(11.9552,0,0,-11.9552,6.8929979,9.153992)"/>
<use data-text="&#x00b7;" xlink:href="#font_4_1" transform="matrix(11.9552,0,0,-11.9552,12.989998,7.7369997)"/>
<use data-text="7" xlink:href="#font_3_2" transform="matrix(11.9552,0,0,-11.9552,16.098999,9.153992)"/>
<use data-text="1" xlink:href="#font_3_1" transform="matrix(11.9552,0,0,-11.9552,22.0766,9.153992)"/>
<use data-text="." xlink:href="#font_5_2" transform="matrix(11.9552,0,0,-11.9552,28.054,9.153992)"/>
<use data-text="I" xlink:href="#font_5_3" transform="matrix(11.9552,0,0,-11.9552,41.097124,9.153992)"/>
<use data-text="f" xlink:href="#font_5_8" transform="matrix(11.9552,0,0,-11.9552,45.0782,9.153992)"/>
<use data-text="&#x1d45d;" xlink:href="#font_6_1" transform="matrix(11.9552,0,0,-11.9552,52.91501,9.153992)"/>
<use data-text="a" xlink:href="#font_5_5" transform="matrix(11.9552,0,0,-11.9552,62.360017,9.153992)"/>
<use data-text="n" xlink:href="#font_5_12" transform="matrix(11.9552,0,0,-11.9552,67.66812,9.153992)"/>
<use data-text="d" xlink:href="#font_5_6" transform="matrix(11.9552,0,0,-11.9552,73.64572,9.153992)"/>
<use data-text="&#x1d45e;" xlink:href="#font_6_2" transform="matrix(11.9552,0,0,-11.9552,82.791019,9.153992)"/>
<use data-text="a" xlink:href="#font_5_5" transform="matrix(11.9552,0,0,-11.9552,92.23602,9.153992)"/>
<use data-text="r" xlink:href="#font_5_15" transform="matrix(11.9552,0,0,-11.9552,97.54413,9.153992)"/>
<use data-text="e" xlink:href="#font_5_7" transform="matrix(11.9552,0,0,-11.9552,101.52521,9.153992)"/>
<use data-text="e" xlink:href="#font_5_7" transform="matrix(11.9552,0,0,-11.9552,109.82211,9.153992)"/>
<use data-text="l" xlink:href="#font_5_10" transform="matrix(11.9552,0,0,-11.9552,115.13022,9.153992)"/>
<use data-text="e" xlink:href="#font_5_7" transform="matrix(11.9552,0,0,-11.9552,118.453769,9.153992)"/>
<use data-text="m" xlink:href="#font_5_11" transform="matrix(11.9552,0,0,-11.9552,123.76187,9.153992)"/>
<use data-text="e" xlink:href="#font_5_7" transform="matrix(11.9552,0,0,-11.9552,133.06302,9.153992)"/>
<use data-text="n" xlink:href="#font_5_12" transform="matrix(11.9552,0,0,-11.9552,138.37113,9.153992)"/>
<use data-text="t" xlink:href="#font_5_17" transform="matrix(11.9552,0,0,-11.9552,144.34873,9.153992)"/>
<use data-text="a" xlink:href="#font_5_5" transform="matrix(11.9552,0,0,-11.9552,147.67227,9.153992)"/>
<use data-text="r" xlink:href="#font_5_15" transform="matrix(11.9552,0,0,-11.9552,152.98038,9.153992)"/>
<use data-text="y" xlink:href="#font_5_18" transform="matrix(11.9552,0,0,-11.9552,157.20056,9.153992)"/>
<use data-text="p" xlink:href="#font_5_14" transform="matrix(11.9552,0,0,-11.9552,166.16696,9.153992)"/>
<use data-text="r" xlink:href="#font_5_15" transform="matrix(11.9552,0,0,-11.9552,172.14456,9.153992)"/>
<use data-text="o" xlink:href="#font_5_13" transform="matrix(11.9552,0,0,-11.9552,176.12564,9.153992)"/>
<use data-text="p" xlink:href="#font_5_14" transform="matrix(11.9552,0,0,-11.9552,182.10324,9.153992)"/>
<use data-text="o" xlink:href="#font_5_13" transform="matrix(11.9552,0,0,-11.9552,188.08084,9.153992)"/>
<use data-text="s" xlink:href="#font_5_16" transform="matrix(11.9552,0,0,-11.9552,194.05844,9.153992)"/>
<use data-text="i" xlink:href="#font_5_9" transform="matrix(11.9552,0,0,-11.9552,198.70902,9.153992)"/>
<use data-text="t" xlink:href="#font_5_17" transform="matrix(11.9552,0,0,-11.9552,202.03256,9.153992)"/>
<use data-text="i" xlink:href="#font_5_9" transform="matrix(11.9552,0,0,-11.9552,205.35611,9.153992)"/>
<use data-text="o" xlink:href="#font_5_13" transform="matrix(11.9552,0,0,-11.9552,208.67966,9.153992)"/>
<use data-text="n" xlink:href="#font_5_12" transform="matrix(11.9552,0,0,-11.9552,214.65726,9.153992)"/>
<use data-text="s" xlink:href="#font_5_16" transform="matrix(11.9552,0,0,-11.9552,220.63486,9.153992)"/>
<use data-text="," xlink:href="#font_5_1" transform="matrix(11.9552,0,0,-11.9552,225.28543,9.153992)"/>
<use data-text="&#x1d45d;" xlink:href="#font_6_1" transform="matrix(11.9552,0,0,-11.9552,232.13501,9.153992)"/>
<use data-text="&#x2228;" xlink:href="#font_4_2" transform="matrix(11.9552,0,0,-11.9552,241.24802,9.153992)"/>
<use data-text="&#x2228;" xlink:href="#font_4_2" transform="matrix(11.9552,0,0,-11.9552,241.24802,9.153992)"/>
<use data-text="&#x2228;" xlink:href="#font_4_2" transform="matrix(11.9552,0,0,-11.9552,241.24802,9.153992)"/>
<use data-text="&#x1d45e;" xlink:href="#font_6_2" transform="matrix(11.9552,0,0,-11.9552,252.38101,9.153992)"/>
<use data-text="i" xlink:href="#font_5_9" transform="matrix(11.9552,0,0,-11.9552,261.825,9.153992)"/>
<use data-text="s" xlink:href="#font_5_16" transform="matrix(11.9552,0,0,-11.9552,265.14857,9.153992)"/>
<use data-text="a" xlink:href="#font_5_5" transform="matrix(11.9552,0,0,-11.9552,272.78794,9.153992)"/>
<use data-text="n" xlink:href="#font_5_12" transform="matrix(11.9552,0,0,-11.9552,278.09605,9.153992)"/>
<use data-text="e" xlink:href="#font_5_7" transform="matrix(11.9552,0,0,-11.9552,287.06245,9.153992)"/>
<use data-text="l" xlink:href="#font_5_10" transform="matrix(11.9552,0,0,-11.9552,292.37055,9.153992)"/>
<use data-text="e" xlink:href="#font_5_7" transform="matrix(11.9552,0,0,-11.9552,295.6941,9.153992)"/>
<use data-text="m" xlink:href="#font_5_11" transform="matrix(11.9552,0,0,-11.9552,301.0022,9.153992)"/>
<use data-text="e" xlink:href="#font_5_7" transform="matrix(11.9552,0,0,-11.9552,310.30335,9.153992)"/>
<use data-text="n" xlink:href="#font_5_12" transform="matrix(11.9552,0,0,-11.9552,315.61146,9.153992)"/>
<use data-text="t" xlink:href="#font_5_17" transform="matrix(11.9552,0,0,-11.9552,321.58906,9.153992)"/>
<use data-text="a" xlink:href="#font_5_5" transform="matrix(11.9552,0,0,-11.9552,324.9126,9.153992)"/>
<use data-text="r" xlink:href="#font_5_15" transform="matrix(11.9552,0,0,-11.9552,330.2207,9.153992)"/>
<use data-text="y" xlink:href="#font_5_18" transform="matrix(11.9552,0,0,-11.9552,334.4409,9.153992)"/>
<use data-text="p" xlink:href="#font_5_14" transform="matrix(11.9552,0,0,-11.9552,343.4073,9.153992)"/>
<use data-text="r" xlink:href="#font_5_15" transform="matrix(11.9552,0,0,-11.9552,349.3849,9.153992)"/>
<use data-text="o" xlink:href="#font_5_13" transform="matrix(11.9552,0,0,-11.9552,353.36598,9.153992)"/>
<use data-text="p" xlink:href="#font_5_14" transform="matrix(11.9552,0,0,-11.9552,359.34358,9.153992)"/>
<use data-text="o" xlink:href="#font_5_13" transform="matrix(11.9552,0,0,-11.9552,365.32118,9.153992)"/>
<use data-text="s" xlink:href="#font_5_16" transform="matrix(11.9552,0,0,-11.9552,371.29878,9.153992)"/>
<use data-text="i" xlink:href="#font_5_9" transform="matrix(11.9552,0,0,-11.9552,375.94935,9.153992)"/>
<use data-text="t" xlink:href="#font_5_17" transform="matrix(11.9552,0,0,-11.9552,379.2729,9.153992)"/>
<use data-text="i" xlink:href="#font_5_9" transform="matrix(11.9552,0,0,-11.9552,382.59645,9.153992)"/>
<use data-text="o" xlink:href="#font_5_13" transform="matrix(11.9552,0,0,-11.9552,385.91999,9.153992)"/>
<use data-text="n" xlink:href="#font_5_12" transform="matrix(11.9552,0,0,-11.9552,391.89759,9.153992)"/>
<use data-text="." xlink:href="#font_5_2" transform="matrix(11.9552,0,0,-11.9552,397.87519,9.153992)"/>
<use data-text="P" xlink:href="#font_5_4" transform="matrix(11.9552,0,0,-11.9552,417.135,9.153992)"/>
<use data-text="p" xlink:href="#font_5_14" transform="matrix(11.9552,0,0,-11.9552,423.7821,9.153992)"/>
<use data-text="." xlink:href="#font_6_3" transform="matrix(11.9552,0,0,-11.9552,429.95106,9.153992)"/>
</g>
</svg>
